<svg id="SvgjsSvg1006" width="1353" height="775.375" xmlns="http://www.w3.org/2000/svg" version="1.1" xmlns:xlink="http://www.w3.org/1999/xlink" xmlns:svgjs="http://svgjs.com/svgjs"><defs id="SvgjsDefs1007"><marker id="SvgjsMarker1071" markerWidth="16" markerHeight="12" refX="16" refY="6" viewBox="0 0 16 12" orient="auto" markerUnits="userSpaceOnUse" stroke-dasharray="0,0"><path id="SvgjsPath1072" d="M0,2 L14,6 L0,11 L0,2" fill="#323232" stroke="#323232" stroke-width="2"></path></marker><marker id="SvgjsMarker1075" markerWidth="16" markerHeight="12" refX="16" refY="6" viewBox="0 0 16 12" orient="auto" markerUnits="userSpaceOnUse" stroke-dasharray="0,0"><path id="SvgjsPath1076" d="M0,2 L14,6 L0,11 L0,2" fill="#323232" stroke="#323232" stroke-width="2"></path></marker><marker id="SvgjsMarker1095" markerWidth="16" markerHeight="12" refX="16" refY="6" viewBox="0 0 16 12" orient="auto" markerUnits="userSpaceOnUse" stroke-dasharray="0,0"><path id="SvgjsPath1096" d="M0,2 L14,6 L0,11 L0,2" fill="#323232" stroke="#323232" stroke-width="2"></path></marker><marker id="SvgjsMarker1115" markerWidth="16" markerHeight="12" refX="16" refY="6" viewBox="0 0 16 12" orient="auto" markerUnits="userSpaceOnUse" stroke-dasharray="0,0"><path id="SvgjsPath1116" d="M0,2 L14,6 L0,11 L0,2" fill="#323232" stroke="#323232" stroke-width="2"></path></marker><marker id="SvgjsMarker1149" markerWidth="16" markerHeight="12" refX="16" refY="6" viewBox="0 0 16 12" orient="auto" markerUnits="userSpaceOnUse" stroke-dasharray="0,0"><path id="SvgjsPath1150" d="M0,2 L14,6 L0,11 L0,2" fill="#323232" stroke="#323232" stroke-width="2"></path></marker><marker id="SvgjsMarker1159" markerWidth="16" markerHeight="12" refX="16" refY="6" viewBox="0 0 16 12" orient="auto" markerUnits="userSpaceOnUse" stroke-dasharray="0,0"><path id="SvgjsPath1160" d="M0,2 L14,6 L0,11 L0,2" fill="#323232" stroke="#323232" stroke-width="2"></path></marker><marker id="SvgjsMarker1186" markerWidth="16" markerHeight="12" refX="16" refY="6" viewBox="0 0 16 12" orient="auto" markerUnits="userSpaceOnUse" stroke-dasharray="0,0"><path id="SvgjsPath1187" d="M0,2 L14,6 L0,11 L0,2" fill="#323232" stroke="#323232" stroke-width="2"></path></marker><marker id="SvgjsMarker1246" markerWidth="16" markerHeight="12" refX="16" refY="6" viewBox="0 0 16 12" orient="auto" markerUnits="userSpaceOnUse" stroke-dasharray="0,0"><path id="SvgjsPath1247" d="M0,2 L14,6 L0,11 L0,2" fill="#323232" stroke="#323232" stroke-width="2"></path></marker></defs><g id="SvgjsG1008" transform="translate(42.5,729.3881370995182)"><path id="SvgjsPath1009" d="M 0 10.5L 691 10.5" stroke-dasharray="10,6" stroke="rgba(136,136,136,1)" stroke-width="1" fill="none"></path><path id="SvgjsPath1010" d="M 0 0L 691 0L 691 21L 0 21Z" stroke="none" fill="none"></path></g><g id="SvgjsG1011" transform="translate(156,25)"><path id="SvgjsPath1012" d="M 0 0L 1172 0L 1172 650L 0 650Z" stroke="rgba(50,50,50,1)" stroke-width="2" fill-opacity="1" fill="#ffffff"></path><g id="SvgjsG1013"><text id="SvgjsText1014" font-family="微软雅黑" text-anchor="middle" font-size="13px" width="1152px" fill="#323232" font-weight="400" align="middle" lineHeight="125%" anchor="middle" family="微软雅黑" size="13px" weight="400" font-style="" opacity="1" y="315.375" transform="rotate(0)"></text></g></g><g id="SvgjsG1015" transform="translate(1070.5,232)"><path id="SvgjsPath1016" d="M 0 62.5C 0 -20.833333333333332 145 -20.833333333333332 145 62.5C 145 145.83333333333334 0 145.83333333333334 0 62.5Z" stroke="rgba(50,50,50,1)" stroke-width="2" fill-opacity="1" fill="#ffffff"></path><g id="SvgjsG1017"><text id="SvgjsText1018" font-family="微软雅黑" text-anchor="middle" font-size="13px" width="125px" fill="#000000" font-weight="400" align="middle" lineHeight="125%" anchor="middle" family="微软雅黑" size="13px" weight="400" font-style="" opacity="1" y="52.875" transform="rotate(0)"><tspan id="SvgjsTspan1019" dy="16" x="72.5"><tspan id="SvgjsTspan1020" style="text-decoration:;">MySQL</tspan></tspan></text></g></g><g id="SvgjsG1021" transform="translate(1085.5,430.5)"><path id="SvgjsPath1022" d="M 0 52.5C 0 -17.5 115 -17.5 115 52.5C 115 122.5 0 122.5 0 52.5Z" stroke="rgba(50,50,50,1)" stroke-width="2" fill-opacity="1" fill="#ffffff"></path><g id="SvgjsG1023"><text id="SvgjsText1024" font-family="微软雅黑" text-anchor="middle" font-size="13px" width="95px" fill="#323232" font-weight="400" align="middle" lineHeight="125%" anchor="middle" family="微软雅黑" size="13px" weight="400" font-style="" opacity="1" y="42.875" transform="rotate(0)"><tspan id="SvgjsTspan1025" dy="16" x="57.5"><tspan id="SvgjsTspan1026" style="text-decoration:;">Redis</tspan></tspan></text></g></g><g id="SvgjsG1027" transform="translate(679,109)"><path id="SvgjsPath1028" d="M 0 0L 255 0L 255 160L 0 160Z" stroke="rgba(50,50,50,1)" stroke-width="2" fill-opacity="1" fill="#ffffff"></path><g id="SvgjsG1029"><text id="SvgjsText1030" font-family="微软雅黑" text-anchor="middle" font-size="13px" width="235px" fill="#323232" font-weight="400" align="middle" lineHeight="125%" anchor="middle" family="微软雅黑" size="13px" weight="400" font-style="" opacity="1" y="70.375" transform="rotate(0)"><tspan id="SvgjsTspan1031" dy="16" x="127.5"><tspan id="SvgjsTspan1032" style="text-decoration:;">vmp_app</tspan></tspan></text></g></g><g id="SvgjsG1033" transform="translate(712.5,477)"><path id="SvgjsPath1034" d="M 0 0L 188 0L 188 120L 0 120Z" stroke="rgba(50,50,50,1)" stroke-width="2" fill-opacity="1" fill="#ffffff"></path><g id="SvgjsG1035"><text id="SvgjsText1036" font-family="微软雅黑" text-anchor="middle" font-size="13px" width="168px" fill="#323232" font-weight="400" align="middle" lineHeight="125%" anchor="middle" family="微软雅黑" size="13px" weight="400" font-style="" opacity="1" y="50.375" transform="rotate(0)"></text></g></g><g id="SvgjsG1037" transform="translate(310,368)"><path id="SvgjsPath1038" d="M 0 0L 256 0L 256 181L 0 181Z" stroke="rgba(50,50,50,1)" stroke-width="2" fill-opacity="1" fill="#ffffff"></path><g id="SvgjsG1039"><text id="SvgjsText1040" font-family="微软雅黑" text-anchor="middle" font-size="13px" width="236px" fill="#323232" font-weight="400" align="middle" lineHeight="125%" anchor="middle" family="微软雅黑" size="13px" weight="400" font-style="" opacity="1" y="80.875" transform="rotate(0)"></text></g></g><g id="SvgjsG1041" transform="translate(66,302)"><path id="SvgjsPath1042" d="M 0 19.8L 60 19.8L 60 0L 90 30L 60 60L 60 40.2L 0 40.2L 0 19.8Z" stroke="rgba(50,50,50,1)" stroke-width="2" fill-opacity="1" fill="#ffffff"></path><g id="SvgjsG1043"><text id="SvgjsText1044" font-family="微软雅黑" text-anchor="middle" font-size="13px" width="90px" fill="#323232" font-weight="400" align="middle" lineHeight="125%" anchor="middle" family="微软雅黑" size="13px" weight="400" font-style="" opacity="1" y="20.375" transform="rotate(0)"></text></g></g><g id="SvgjsG1045" transform="translate(25,312)"><path id="SvgjsPath1046" d="M 0 0L 120 0L 120 40L 0 40Z" stroke="none" fill="none"></path><g id="SvgjsG1047"><text id="SvgjsText1048" font-family="微软雅黑" text-anchor="middle" font-size="13px" width="120px" fill="#323232" font-weight="400" align="middle" lineHeight="125%" anchor="middle" family="微软雅黑" size="13px" weight="400" font-style="" opacity="1" y="10.375" transform="rotate(0)"><tspan id="SvgjsTspan1049" dy="16" x="60"><tspan id="SvgjsTspan1050" style="text-decoration:;">用户</tspan></tspan></text></g></g><g id="SvgjsG1051" transform="translate(230,459)"><path id="SvgjsPath1052" d="M 0 0L 120 0L 120 40L 0 40Z" stroke="none" fill="none"></path><g id="SvgjsG1053"><text id="SvgjsText1054" font-family="微软雅黑" text-anchor="middle" font-size="13px" width="120px" fill="#323232" font-weight="400" align="middle" lineHeight="125%" anchor="middle" family="微软雅黑" size="13px" weight="400" font-style="" opacity="1" y="10.375" transform="rotate(0)"><tspan id="SvgjsTspan1055" dy="16" x="60"><tspan id="SvgjsTspan1056" style="text-decoration:;">8111</tspan></tspan></text></g></g><g id="SvgjsG1057" transform="translate(374,325)"><path id="SvgjsPath1058" d="M 0 0L 120 0L 120 40L 0 40Z" stroke="none" fill="none"></path><g id="SvgjsG1059"><text id="SvgjsText1060" font-family="微软雅黑" text-anchor="middle" font-size="13px" width="120px" fill="#0000ff" font-weight="400" align="middle" lineHeight="125%" anchor="middle" family="微软雅黑" size="13px" weight="400" font-style="" opacity="1" y="10.375" transform="rotate(0)"><tspan id="SvgjsTspan1061" dy="16" x="60"><tspan id="SvgjsTspan1062" style="text-decoration:;">vmp_web容器</tspan></tspan></text></g></g><g id="SvgjsG1063" transform="translate(350,433)"><path id="SvgjsPath1064" d="M 0 0L 92 0L 92 57L 0 57Z" stroke-dasharray="3,4" stroke="rgba(50,50,50,1)" stroke-width="2" fill-opacity="1" fill="#ffffff"></path><g id="SvgjsG1065"><text id="SvgjsText1066" font-family="微软雅黑" text-anchor="middle" font-size="13px" width="72px" fill="#323232" font-weight="400" align="middle" lineHeight="125%" anchor="middle" family="微软雅黑" size="13px" weight="400" font-style="" opacity="1" y="18.875" transform="rotate(0)"><tspan id="SvgjsTspan1067" dy="16" x="46"><tspan id="SvgjsTspan1068" style="text-decoration:;">nginx</tspan></tspan></text></g></g><g id="SvgjsG1069"><path id="SvgjsPath1070" d="M156 332L233 332L233 458.5L310 458.5" stroke="#323232" stroke-width="2" fill="none" marker-end="url(#SvgjsMarker1071)"></path></g><g id="SvgjsG1073"><path id="SvgjsPath1074" d="M442 461.5L509.5 461.5L509.5 448" stroke-dasharray="3,3" stroke="#323232" stroke-width="2" fill="none" marker-end="url(#SvgjsMarker1075)"></path></g><g id="SvgjsG1077" transform="translate(466,386)"><path id="SvgjsPath1078" d="M 0 0L 87 0L 87 62L 0 62Z" stroke-dasharray="3,4" stroke="rgba(50,50,50,1)" stroke-width="2" fill-opacity="1" fill="#ffffff"></path><g id="SvgjsG1079"><text id="SvgjsText1080" font-family="微软雅黑" text-anchor="middle" font-size="13px" width="67px" fill="#323232" font-weight="400" align="middle" lineHeight="125%" anchor="middle" family="微软雅黑" size="13px" weight="400" font-style="" opacity="1" y="21.375" transform="rotate(0)"><tspan id="SvgjsTspan1081" dy="16" x="43.5"><tspan id="SvgjsTspan1082" style="text-decoration:;">静态资源</tspan></tspan></text></g></g><g id="SvgjsG1083" transform="translate(305,563)"><path id="SvgjsPath1084" d="M 0 0L 242 0L 258 16L 258 66L 0 66L 0 0Z" stroke="none" fill-opacity="1" fill="#ffffaa"></path><path id="SvgjsPath1085" d="M 242 0L 242 16L 258 16Z" stroke="none" fill-opacity="1" fill="#cdcdcd"></path><path id="SvgjsPath1086" d="M 0 0L 242 0L 258 16L 258 66L 0 66L 0 0Z" stroke="none" fill="none"></path><g id="SvgjsG1087"><text id="SvgjsText1088" font-family="微软雅黑" text-anchor="middle" font-size="13px" width="238px" fill="#323232" font-weight="400" align="middle" lineHeight="125%" anchor="middle" family="微软雅黑" size="13px" weight="400" font-style="" opacity="1" y="15.375" transform="rotate(0)"><tspan id="SvgjsTspan1089" dy="16" x="129"><tspan id="SvgjsTspan1090" style="text-decoration:;">8111:80</tspan></tspan><tspan id="SvgjsTspan1091" dy="16" x="129"><tspan id="SvgjsTspan1092" style="text-decoration:;">web界面由容器内的nginx转发配置</tspan></tspan></text></g></g><g id="SvgjsG1093"><path id="SvgjsPath1094" d="M521 386L521 189L679 189" stroke="#323232" stroke-width="2" fill="none" marker-end="url(#SvgjsMarker1095)"></path></g><g id="SvgjsG1097" transform="translate(750.5,66)"><path id="SvgjsPath1098" d="M 0 0L 120 0L 120 40L 0 40Z" stroke="none" fill="none"></path><g id="SvgjsG1099"><text id="SvgjsText1100" font-family="微软雅黑" text-anchor="middle" font-size="13px" width="120px" fill="#0000ff" font-weight="400" align="middle" lineHeight="125%" anchor="middle" family="微软雅黑" size="13px" weight="400" font-style="" opacity="1" y="10.375" transform="rotate(0)"><tspan id="SvgjsTspan1101" dy="16" x="60"><tspan id="SvgjsTspan1102" style="text-decoration:;">vmp_app容器</tspan></tspan></text></g></g><g id="SvgjsG1103" transform="translate(944,59)"><path id="SvgjsPath1104" d="M 0 0L 104 0L 120 16L 120 93L 0 93L 0 0Z" stroke="none" fill-opacity="1" fill="#ffffaa"></path><path id="SvgjsPath1105" d="M 104 0L 104 16L 120 16Z" stroke="none" fill-opacity="1" fill="#cdcdcd"></path><path id="SvgjsPath1106" d="M 0 0L 104 0L 120 16L 120 93L 0 93L 0 0Z" stroke="none" fill="none"></path><g id="SvgjsG1107"><text id="SvgjsText1108" font-family="微软雅黑" text-anchor="middle" font-size="13px" width="100px" fill="#323232" font-weight="400" align="middle" lineHeight="125%" anchor="middle" family="微软雅黑" size="13px" weight="400" font-style="" opacity="1" y="28.875" transform="rotate(0)"><tspan id="SvgjsTspan1109" dy="16" x="60"><tspan id="SvgjsTspan1110" style="text-decoration:;">后端服务app提</tspan></tspan><tspan id="SvgjsTspan1111" dy="16" x="60"><tspan id="SvgjsTspan1112" style="text-decoration:;">供数据进行渲染</tspan></tspan></text></g></g><g id="SvgjsG1113"><path id="SvgjsPath1114" d="M806.5 269L806.5 373L806.5 373L806.5 477" stroke="#323232" stroke-width="2" fill="none" marker-end="url(#SvgjsMarker1115)"></path></g><g id="SvgjsG1117" transform="translate(750.5,602)"><path id="SvgjsPath1118" d="M 0 0L 120 0L 120 40L 0 40Z" stroke="none" fill="none"></path><g id="SvgjsG1119"><text id="SvgjsText1120" font-family="微软雅黑" text-anchor="middle" font-size="13px" width="120px" fill="#0000ff" font-weight="400" align="middle" lineHeight="125%" anchor="middle" family="微软雅黑" size="13px" weight="400" font-style="" opacity="1" y="10.375" transform="rotate(0)"><tspan id="SvgjsTspan1121" dy="16" x="60"><tspan id="SvgjsTspan1122" style="text-decoration:;">vmp_api 容器</tspan></tspan></text></g></g><g id="SvgjsG1123" transform="translate(911,459)"><path id="SvgjsPath1124" d="M 0 0L 101 0L 117 16L 117 97L 0 97L 0 0Z" stroke="none" fill-opacity="1" fill="#ffffaa"></path><path id="SvgjsPath1125" d="M 101 0L 101 16L 117 16Z" stroke="none" fill-opacity="1" fill="#cdcdcd"></path><path id="SvgjsPath1126" d="M 0 0L 101 0L 117 16L 117 97L 0 97L 0 0Z" stroke="none" fill="none"></path><g id="SvgjsG1127"><text id="SvgjsText1128" font-family="微软雅黑" text-anchor="middle" font-size="13px" width="97px" fill="#323232" font-weight="400" align="middle" lineHeight="125%" anchor="middle" family="微软雅黑" size="13px" weight="400" font-style="" opacity="1" y="22.875" transform="rotate(0)"><tspan id="SvgjsTspan1129" dy="16" x="58.5"><tspan id="SvgjsTspan1130" style="text-decoration:;">api服务负责执行</tspan></tspan><tspan id="SvgjsTspan1131" dy="16" x="58.5"><tspan id="SvgjsTspan1132" style="text-decoration:;">python代码, 构</tspan></tspan><tspan id="SvgjsTspan1133" dy="16" x="58.5"><tspan id="SvgjsTspan1134" style="text-decoration:;">建图表等操作</tspan></tspan></text></g></g><g id="SvgjsG1135" transform="translate(822,552)"><path id="SvgjsPath1136" d="M 0 0L 65 0L 65 34L 0 34Z" stroke-dasharray="3,4" stroke="rgba(50,50,50,1)" stroke-width="2" fill-opacity="1" fill="#ffffff"></path><g id="SvgjsG1137"><text id="SvgjsText1138" font-family="微软雅黑" text-anchor="middle" font-size="13px" width="45px" fill="#323232" font-weight="400" align="middle" lineHeight="125%" anchor="middle" family="微软雅黑" size="13px" weight="400" font-style="" opacity="1" y="7.375" transform="rotate(0)"><tspan id="SvgjsTspan1139" dy="16" x="32.5"><tspan id="SvgjsTspan1140" style="text-decoration:;">samta</tspan></tspan></text></g></g><g id="SvgjsG1141" transform="translate(733.5,495)"><path id="SvgjsPath1142" d="M 0 0L 85.5 0L 85.5 45L 0 45Z" stroke-dasharray="3,4" stroke="rgba(50,50,50,1)" stroke-width="2" fill-opacity="1" fill="#ffffff"></path><g id="SvgjsG1143"><text id="SvgjsText1144" font-family="微软雅黑" text-anchor="middle" font-size="13px" width="66px" fill="#323232" font-weight="400" align="middle" lineHeight="125%" anchor="middle" family="微软雅黑" size="13px" weight="400" font-style="" opacity="1" y="12.875" transform="rotate(0)"><tspan id="SvgjsTspan1145" dy="16" x="43"><tspan id="SvgjsTspan1146" style="text-decoration:;">api服务</tspan></tspan></text></g></g><g id="SvgjsG1147"><path id="SvgjsPath1148" d="M819 517.5L854.5 517.5L854.5 552" stroke-dasharray="3,3" stroke="#323232" stroke-width="2" fill="none" marker-end="url(#SvgjsMarker1149)"></path></g><g id="SvgjsG1151" transform="translate(706,543.5)"><path id="SvgjsPath1152" d="M 0 0L 120 0L 120 40L 0 40Z" stroke="none" fill="none"></path><g id="SvgjsG1153"><text id="SvgjsText1154" font-family="微软雅黑" text-anchor="middle" font-size="13px" width="120px" fill="#323232" font-weight="400" align="middle" lineHeight="125%" anchor="middle" family="微软雅黑" size="13px" weight="400" font-style="" opacity="1" y="10.375" transform="rotate(0)"><tspan id="SvgjsTspan1155" dy="16" x="60"><tspan id="SvgjsTspan1156" style="text-decoration:;">调用包, 需编译</tspan></tspan></text></g></g><g id="SvgjsG1157"><path id="SvgjsPath1158" d="M900 582L1143 582L1143 535.5" stroke="#323232" stroke-width="2" fill="none" marker-end="url(#SvgjsMarker1159)"></path></g><g id="SvgjsG1161" transform="translate(1224,436.25)"><path id="SvgjsPath1162" d="M 0 0L 59 0L 75 16L 75 93.5L 0 93.5L 0 0Z" stroke="none" fill-opacity="1" fill="#ffffaa"></path><path id="SvgjsPath1163" d="M 59 0L 59 16L 75 16Z" stroke="none" fill-opacity="1" fill="#cdcdcd"></path><path id="SvgjsPath1164" d="M 0 0L 59 0L 75 16L 75 93.5L 0 93.5L 0 0Z" stroke="none" fill="none"></path><g id="SvgjsG1165"><text id="SvgjsText1166" font-family="微软雅黑" text-anchor="middle" font-size="13px" width="55px" fill="#323232" font-weight="400" align="middle" lineHeight="125%" anchor="middle" family="微软雅黑" size="13px" weight="400" font-style="" opacity="1" y="29.125" transform="rotate(0)"><tspan id="SvgjsTspan1167" dy="16" x="37.5"><tspan id="SvgjsTspan1168" style="text-decoration:;">缓存服务</tspan></tspan><tspan id="SvgjsTspan1169" dy="16" x="37.5"><tspan id="SvgjsTspan1170" style="text-decoration:;">提高效率</tspan></tspan></text></g></g><g id="SvgjsG1171" transform="translate(1083,401.5)"><path id="SvgjsPath1172" d="M 0 0L 120 0L 120 40L 0 40Z" stroke="none" fill="none"></path><g id="SvgjsG1173"><text id="SvgjsText1174" font-family="微软雅黑" text-anchor="middle" font-size="13px" width="120px" fill="#0000ff" font-weight="400" align="middle" lineHeight="125%" anchor="middle" family="微软雅黑" size="13px" weight="400" font-style="" opacity="1" y="10.375" transform="rotate(0)"><tspan id="SvgjsTspan1175" dy="16" x="60"><tspan id="SvgjsTspan1176" style="text-decoration:;">Redis 容器</tspan></tspan></text></g></g><g id="SvgjsG1177" transform="translate(1083,352)"><path id="SvgjsPath1178" d="M 0 0L 120 0L 120 40L 0 40Z" stroke="none" fill="none"></path><g id="SvgjsG1179"><text id="SvgjsText1180" font-family="微软雅黑" text-anchor="middle" font-size="13px" width="120px" fill="#0000ff" font-weight="400" align="middle" lineHeight="125%" anchor="middle" family="微软雅黑" size="13px" weight="400" font-style="" opacity="1" y="10.375" transform="rotate(0)"><tspan id="SvgjsTspan1181" dy="16" x="60"><tspan id="SvgjsTspan1182" style="text-decoration:;">MySQL</tspan><tspan id="SvgjsTspan1183" style="text-decoration:;font-size: inherit;"> 容器</tspan></tspan></text></g></g><g id="SvgjsG1184"><path id="SvgjsPath1185" d="M934 189L1143 189L1143 232" stroke="#323232" stroke-width="2" fill="none" marker-end="url(#SvgjsMarker1186)"></path></g><g id="SvgjsG1188" transform="translate(1228,216)"><path id="SvgjsPath1189" d="M 0 0L 74 0L 90 16L 90 109L 0 109L 0 0Z" stroke="none" fill-opacity="1" fill="#ffffaa"></path><path id="SvgjsPath1190" d="M 74 0L 74 16L 90 16Z" stroke="none" fill-opacity="1" fill="#cdcdcd"></path><path id="SvgjsPath1191" d="M 0 0L 74 0L 90 16L 90 109L 0 109L 0 0Z" stroke="none" fill="none"></path><g id="SvgjsG1192"><text id="SvgjsText1193" font-family="微软雅黑" text-anchor="middle" font-size="13px" width="70px" fill="#323232" font-weight="400" align="middle" lineHeight="125%" anchor="middle" family="微软雅黑" size="13px" weight="400" font-style="" opacity="1" y="36.875" transform="rotate(0)"><tspan id="SvgjsTspan1194" dy="16" x="45"><tspan id="SvgjsTspan1195" style="text-decoration:;">业务数据库</tspan></tspan><tspan id="SvgjsTspan1196" dy="16" x="45"><tspan id="SvgjsTspan1197" style="text-decoration:;">采用mysql</tspan></tspan></text></g></g><g id="SvgjsG1198" transform="translate(192,80)"><path id="SvgjsPath1199" d="M 0 0L 222 0L 238 16L 238 125L 0 125L 0 0Z" stroke="none" fill-opacity="1" fill="#ffffaa"></path><path id="SvgjsPath1200" d="M 222 0L 222 16L 238 16Z" stroke="none" fill-opacity="1" fill="#cdcdcd"></path><path id="SvgjsPath1201" d="M 0 0L 222 0L 238 16L 238 125L 0 125L 0 0Z" stroke="none" fill="none"></path><g id="SvgjsG1202"><text id="SvgjsText1203" font-family="微软雅黑" text-anchor="middle" font-size="13px" width="218px" fill="#323232" font-weight="400" align="middle" lineHeight="125%" anchor="middle" family="微软雅黑" size="13px" weight="400" font-style="" opacity="1" y="20.875" transform="rotate(0)"><tspan id="SvgjsTspan1204" dy="16" x="119"><tspan id="SvgjsTspan1205" style="text-decoration:;">前后端分离的架构</tspan></tspan><tspan id="SvgjsTspan1206" dy="16" x="119"><tspan id="SvgjsTspan1207" style="text-decoration:;"> </tspan></tspan><tspan id="SvgjsTspan1208" dy="16" x="119"><tspan id="SvgjsTspan1209" style="text-decoration:;">项目使用docker部署</tspan></tspan><tspan id="SvgjsTspan1210" dy="16" x="119"><tspan id="SvgjsTspan1211" style="text-decoration:;"> </tspan></tspan><tspan id="SvgjsTspan1212" dy="16" x="119"><tspan id="SvgjsTspan1213" style="text-decoration:;">docker-compose进行编排管理</tspan></tspan></text></g></g><g id="SvgjsG1214" transform="translate(156,25)"><path id="SvgjsPath1215" d="M 0 0L 90 0L 90 41L 0 41Z" stroke-dasharray="3,4" stroke="rgba(50,50,50,1)" stroke-width="2" fill-opacity="1" fill="#ffffff"></path><g id="SvgjsG1216"><text id="SvgjsText1217" font-family="微软雅黑" text-anchor="middle" font-size="13px" width="70px" fill="#323232" font-weight="400" align="middle" lineHeight="125%" anchor="middle" family="微软雅黑" size="13px" weight="400" font-style="" opacity="1" y="10.875" transform="rotate(0)"><tspan id="SvgjsTspan1218" dy="16" x="45"><tspan id="SvgjsTspan1219" style="text-decoration:;">服务器</tspan></tspan></text></g></g><g id="SvgjsG1220" transform="translate(598,157)"><path id="SvgjsPath1221" d="M 0 0L 120 0L 120 40L 0 40Z" stroke="none" fill="none"></path><g id="SvgjsG1222"><text id="SvgjsText1223" font-family="微软雅黑" text-anchor="middle" font-size="13px" width="120px" fill="#323232" font-weight="400" align="middle" lineHeight="125%" anchor="middle" family="微软雅黑" size="13px" weight="400" font-style="" opacity="1" y="10.375" transform="rotate(0)"><tspan id="SvgjsTspan1224" dy="16" x="60"><tspan id="SvgjsTspan1225" style="text-decoration:;">8222</tspan></tspan></text></g></g><g id="SvgjsG1226" transform="translate(771,441.5)"><path id="SvgjsPath1227" d="M 0 0L 120 0L 120 40L 0 40Z" stroke="none" fill="none"></path><g id="SvgjsG1228"><text id="SvgjsText1229" font-family="微软雅黑" text-anchor="middle" font-size="13px" width="120px" fill="#323232" font-weight="400" align="middle" lineHeight="125%" anchor="middle" family="微软雅黑" size="13px" weight="400" font-style="" opacity="1" y="10.375" transform="rotate(0)"><tspan id="SvgjsTspan1230" dy="16" x="60"><tspan id="SvgjsTspan1231" style="text-decoration:;">8333</tspan></tspan></text></g></g><g id="SvgjsG1232" transform="translate(1113,201)"><path id="SvgjsPath1233" d="M 0 0L 120 0L 120 40L 0 40Z" stroke="none" fill="none"></path><g id="SvgjsG1234"><text id="SvgjsText1235" font-family="微软雅黑" text-anchor="middle" font-size="13px" width="120px" fill="#323232" font-weight="400" align="middle" lineHeight="125%" anchor="middle" family="微软雅黑" size="13px" weight="400" font-style="" opacity="1" y="10.375" transform="rotate(0)"><tspan id="SvgjsTspan1236" dy="16" x="60"><tspan id="SvgjsTspan1237" style="text-decoration:;">8306</tspan></tspan></text></g></g><g id="SvgjsG1238" transform="translate(1113,529.75)"><path id="SvgjsPath1239" d="M 0 0L 120 0L 120 40L 0 40Z" stroke="none" fill="none"></path><g id="SvgjsG1240"><text id="SvgjsText1241" font-family="微软雅黑" text-anchor="middle" font-size="13px" width="120px" fill="#323232" font-weight="400" align="middle" lineHeight="125%" anchor="middle" family="微软雅黑" size="13px" weight="400" font-style="" opacity="1" y="10.375" transform="rotate(0)"><tspan id="SvgjsTspan1242" dy="16" x="60"><tspan id="SvgjsTspan1243" style="text-decoration:;">8307</tspan></tspan></text></g></g><g id="SvgjsG1244"><path id="SvgjsPath1245" d="M311 461L330.5 461L330.5 461.5L350 461.5" stroke-dasharray="3,3" stroke="#323232" stroke-width="2" fill="none" marker-end="url(#SvgjsMarker1246)"></path></g></svg>