<svg id="SvgjsSvg1006" width="1421" height="717.03125" xmlns="http://www.w3.org/2000/svg" version="1.1" xmlns:xlink="http://www.w3.org/1999/xlink" xmlns:svgjs="http://svgjs.com/svgjs"><defs id="SvgjsDefs1007"><marker id="SvgjsMarker1010" markerWidth="16" markerHeight="12" refX="16" refY="6" viewBox="0 0 16 12" orient="auto" markerUnits="userSpaceOnUse" stroke-dasharray="0,0"><path id="SvgjsPath1011" d="M0,2 L14,6 L0,11 L0,2" fill="#000000" stroke="#000000" stroke-width="2"></path></marker><marker id="SvgjsMarker1018" markerWidth="16" markerHeight="12" refX="16" refY="6" viewBox="0 0 16 12" orient="auto" markerUnits="userSpaceOnUse" stroke-dasharray="0,0"><path id="SvgjsPath1019" d="M0,2 L14,6 L0,11 L0,2" fill="#000000" stroke="#000000" stroke-width="2"></path></marker><marker id="SvgjsMarker1022" markerWidth="16" markerHeight="12" refX="16" refY="6" viewBox="0 0 16 12" orient="auto" markerUnits="userSpaceOnUse" stroke-dasharray="0,0"><path id="SvgjsPath1023" d="M0,2 L14,6 L0,11 L0,2" fill="#00ff00" stroke="#00ff00" stroke-width="2"></path></marker><marker id="SvgjsMarker1036" markerWidth="16" markerHeight="12" refX="16" refY="6" viewBox="0 0 16 12" orient="auto" markerUnits="userSpaceOnUse" stroke-dasharray="0,0"><path id="SvgjsPath1037" d="M0,2 L14,6 L0,11 L0,2" fill="#000000" stroke="#000000" stroke-width="2"></path></marker><marker id="SvgjsMarker1040" markerWidth="16" markerHeight="12" refX="16" refY="6" viewBox="0 0 16 12" orient="auto" markerUnits="userSpaceOnUse" stroke-dasharray="0,0"><path id="SvgjsPath1041" d="M0,2 L14,6 L0,11 L0,2" fill="#0000ff" stroke="#0000ff" stroke-width="2"></path></marker><marker id="SvgjsMarker1066" markerWidth="16" markerHeight="12" refX="16" refY="6" viewBox="0 0 16 12" orient="auto" markerUnits="userSpaceOnUse" stroke-dasharray="0,0"><path id="SvgjsPath1067" d="M0,2 L14,6 L0,11 L0,2" fill="#0000ff" stroke="#0000ff" stroke-width="2"></path></marker><marker id="SvgjsMarker1088" markerWidth="16" markerHeight="12" refX="16" refY="6" viewBox="0 0 16 12" orient="auto" markerUnits="userSpaceOnUse" stroke-dasharray="0,0"><path id="SvgjsPath1089" d="M0,2 L14,6 L0,11 L0,2" fill="#0000ff" stroke="#0000ff" stroke-width="2"></path></marker><marker id="SvgjsMarker1100" markerWidth="16" markerHeight="12" refX="16" refY="6" viewBox="0 0 16 12" orient="auto" markerUnits="userSpaceOnUse" stroke-dasharray="0,0"><path id="SvgjsPath1101" d="M0,2 L14,6 L0,11 L0,2" fill="#ff0000" stroke="#ff0000" stroke-width="2"></path></marker><marker id="SvgjsMarker1110" markerWidth="16" markerHeight="12" refX="16" refY="6" viewBox="0 0 16 12" orient="auto" markerUnits="userSpaceOnUse" stroke-dasharray="0,0"><path id="SvgjsPath1111" d="M0,2 L14,6 L0,11 L0,2" fill="#000000" stroke="#000000" stroke-width="2"></path></marker><marker id="SvgjsMarker1120" markerWidth="16" markerHeight="12" refX="16" refY="6" viewBox="0 0 16 12" orient="auto" markerUnits="userSpaceOnUse" stroke-dasharray="0,0"><path id="SvgjsPath1121" d="M0,2 L14,6 L0,11 L0,2" fill="#000000" stroke="#000000" stroke-width="2"></path></marker><marker id="SvgjsMarker1134" markerWidth="16" markerHeight="12" refX="16" refY="6" viewBox="0 0 16 12" orient="auto" markerUnits="userSpaceOnUse" stroke-dasharray="0,0"><path id="SvgjsPath1135" d="M0,2 L14,6 L0,11 L0,2" fill="#323232" stroke="#323232" stroke-width="2"></path></marker><marker id="SvgjsMarker1198" markerWidth="16" markerHeight="12" refX="16" refY="6" viewBox="0 0 16 12" orient="auto" markerUnits="userSpaceOnUse" stroke-dasharray="0,0"><path id="SvgjsPath1199" d="M0,2 L14,6 L0,11 L0,2" fill="#323232" stroke="#323232" stroke-width="2"></path></marker><marker id="SvgjsMarker1211" markerWidth="16" markerHeight="12" refX="16" refY="6" viewBox="0 0 16 12" orient="auto" markerUnits="userSpaceOnUse" stroke-dasharray="0,0"><path id="SvgjsPath1212" d="M0,2 L14,6 L0,11 L0,2" fill="#0000ff" stroke="#0000ff" stroke-width="2"></path></marker><marker id="SvgjsMarker1219" markerWidth="16" markerHeight="12" refX="16" refY="6" viewBox="0 0 16 12" orient="auto" markerUnits="userSpaceOnUse" stroke-dasharray="0,0"><path id="SvgjsPath1220" d="M0,2 L14,6 L0,11 L0,2" fill="#ff0000" stroke="#ff0000" stroke-width="2"></path></marker><marker id="SvgjsMarker1223" markerWidth="16" markerHeight="12" refX="16" refY="6" viewBox="0 0 16 12" orient="auto" markerUnits="userSpaceOnUse" stroke-dasharray="0,0"><path id="SvgjsPath1224" d="M0,2 L14,6 L0,11 L0,2" fill="#ff0000" stroke="#ff0000" stroke-width="2"></path></marker><marker id="SvgjsMarker1247" markerWidth="16" markerHeight="12" refX="16" refY="6" viewBox="0 0 16 12" orient="auto" markerUnits="userSpaceOnUse" stroke-dasharray="0,0"><path id="SvgjsPath1248" d="M0,2 L14,6 L0,11 L0,2" fill="#0000ff" stroke="#0000ff" stroke-width="2"></path></marker><marker id="SvgjsMarker1255" markerWidth="16" markerHeight="12" refX="16" refY="6" viewBox="0 0 16 12" orient="auto" markerUnits="userSpaceOnUse" stroke-dasharray="0,0"><path id="SvgjsPath1256" d="M0,2 L14,6 L0,11 L0,2" fill="#0000ff" stroke="#0000ff" stroke-width="2"></path></marker><marker id="SvgjsMarker1259" markerWidth="16" markerHeight="12" refX="16" refY="6" viewBox="0 0 16 12" orient="auto" markerUnits="userSpaceOnUse" stroke-dasharray="0,0"><path id="SvgjsPath1260" d="M0,2 L14,6 L0,11 L0,2" fill="#0000ff" stroke="#0000ff" stroke-width="2"></path></marker><marker id="SvgjsMarker1263" markerWidth="16" markerHeight="12" refX="16" refY="6" viewBox="0 0 16 12" orient="auto" markerUnits="userSpaceOnUse" stroke-dasharray="0,0"><path id="SvgjsPath1264" d="M0,2 L14,6 L0,11 L0,2" fill="#0000ff" stroke="#0000ff" stroke-width="2"></path></marker></defs><g id="SvgjsG1008"><path id="SvgjsPath1009" d="M275.14109926168993 166.98788927335642L698.5705496308449 166.98788927335642L698.5705496308449 166.98788927335642L1122 166.98788927335642" stroke="#000000" stroke-width="2" fill="none" marker-end="url(#SvgjsMarker1010)"></path><rect id="SvgjsRect1012" width="50" height="16" x="673.5705496308449" y="158.98788927335642" fill="#ffffff"></rect><text id="SvgjsText1013" font-family="微软雅黑" text-anchor="middle" font-size="13px" width="50px" fill="#323232" font-weight="400" align="top" lineHeight="16px" anchor="middle" family="微软雅黑" size="13px" weight="400" font-style="" opacity="1" y="157.36288927335642" transform="rotate(0)"><tspan id="SvgjsTspan1014" dy="16" x="698.5705496308449"><tspan id="SvgjsTspan1015" style="text-decoration:;">develop</tspan></tspan></text></g><g id="SvgjsG1016"><path id="SvgjsPath1017" d="M298.33880229696473 173.83217993079586L298.33880229696473 228.8659169550173L298.33880229696473 228.8659169550173L298.33880229696473 283.8996539792388" stroke-dasharray="3,3" stroke="#000000" stroke-width="2" fill="none" marker-end="url(#SvgjsMarker1018)"></path></g><g id="SvgjsG1020"><path id="SvgjsPath1021" d="M299.1657095980312 288.7439446366782L703.0828547990156 288.7439446366782L703.0828547990156 288.7439446366782L1107 288.7439446366782" stroke="#00ff00" stroke-width="2" fill="none" marker-end="url(#SvgjsMarker1022)"></path><rect id="SvgjsRect1024" width="28" height="16" x="689.0828547990155" y="280.7439446366782" fill="#ffffff"></rect><text id="SvgjsText1025" font-family="微软雅黑" text-anchor="middle" font-size="13px" width="28px" fill="#323232" font-weight="400" align="top" lineHeight="16px" anchor="middle" family="微软雅黑" size="13px" weight="400" font-style="" opacity="1" y="279.1189446366782" transform="rotate(0)"><tspan id="SvgjsTspan1026" dy="16" x="703.0828547990155"><tspan id="SvgjsTspan1027" style="text-decoration:;">beta</tspan></tspan></text></g><g id="SvgjsG1028" transform="translate(623.3609515996718,251.26297577854672)"><path id="SvgjsPath1029" d="M 0 0L 173.63904840032814 0L 173.63904840032814 32.14359861591696L 0 32.14359861591696Z" stroke="none" fill="none"></path><g id="SvgjsG1030"><text id="SvgjsText1031" font-family="微软雅黑" text-anchor="middle" font-size="13px" width="174px" fill="#00ff00" font-weight="400" align="middle" lineHeight="125%" anchor="middle" family="微软雅黑" size="13px" weight="400" font-style="" opacity="1" y="6.446799307958479" transform="rotate(0)"><tspan id="SvgjsTspan1032" dy="16" x="87"><tspan id="SvgjsTspan1033" style="text-decoration:;">自动触发cicd, 构建测试环境</tspan></tspan></text></g></g><g id="SvgjsG1034"><path id="SvgjsPath1035" d="M323.4864643150123 171.96193771626298L323.4864643150123 319.0432525951557L323.4864643150123 319.0432525951557L323.4864643150123 466.12456747404843" stroke-dasharray="3,3" stroke="#000000" stroke-width="2" fill="none" marker-end="url(#SvgjsMarker1036)"></path></g><g id="SvgjsG1038"><path id="SvgjsPath1039" d="M325 464.0467128027682L429 464.0467128027682L429 464.0467128027682L533 464.0467128027682" stroke="#0000ff" stroke-width="2" fill="none" marker-end="url(#SvgjsMarker1040)"></path><rect id="SvgjsRect1042" width="44" height="16" x="407" y="456.0467128027682" fill="#ffffff"></rect><text id="SvgjsText1043" font-family="微软雅黑" text-anchor="middle" font-size="13px" width="44px" fill="#323232" font-weight="400" align="top" lineHeight="16px" anchor="middle" family="微软雅黑" size="13px" weight="400" font-style="" opacity="1" y="454.4217128027682" transform="rotate(0)"><tspan id="SvgjsTspan1044" dy="16" x="429"><tspan id="SvgjsTspan1045" style="text-decoration:;">feature</tspan></tspan></text></g><g id="SvgjsG1046" transform="translate(184.67842493847417,425.1107266435986)"><path id="SvgjsPath1047" d="M 0 0L 114.487284659557 0L 114.487284659557 38.96193771626298L 0 38.96193771626298Z" stroke="none" fill="none"></path><g id="SvgjsG1048"><text id="SvgjsText1049" font-family="微软雅黑" text-anchor="middle" font-size="13px" width="115px" fill="#0000ff" font-weight="400" align="middle" lineHeight="125%" anchor="middle" family="微软雅黑" size="13px" weight="400" font-style="" opacity="1" y="9.85596885813149" transform="rotate(0)"><tspan id="SvgjsTspan1050" dy="16" x="57.5"><tspan id="SvgjsTspan1051" style="text-decoration:;">日常开发分支</tspan></tspan></text></g></g><g id="SvgjsG1052" transform="translate(176.07793273174732,265.8538062283737)"><path id="SvgjsPath1053" d="M 0 0L 114.487284659557 0L 114.487284659557 38.96193771626298L 0 38.96193771626298Z" stroke="none" fill="none"></path><g id="SvgjsG1054"><text id="SvgjsText1055" font-family="微软雅黑" text-anchor="middle" font-size="13px" width="115px" fill="#00ff00" font-weight="400" align="middle" lineHeight="125%" anchor="middle" family="微软雅黑" size="13px" weight="400" font-style="" opacity="1" y="9.85596885813149" transform="rotate(0)"><tspan id="SvgjsTspan1056" dy="16" x="57.5"><tspan id="SvgjsTspan1057" style="text-decoration:;">测试版本</tspan></tspan></text></g></g><g id="SvgjsG1058" transform="translate(194.66078753076292,149)"><path id="SvgjsPath1059" d="M 0 0L 77.32157506152583 0L 77.32157506152583 33L 0 33Z" stroke="none" fill="none"></path><g id="SvgjsG1060"><text id="SvgjsText1061" font-family="微软雅黑" text-anchor="middle" font-size="13px" width="78px" fill="#323232" font-weight="400" align="middle" lineHeight="125%" anchor="middle" family="微软雅黑" size="13px" weight="400" font-style="" opacity="1" y="6.875" transform="rotate(0)"><tspan id="SvgjsTspan1062" dy="16" x="39"><tspan id="SvgjsTspan1063" style="text-decoration:;">开发版本</tspan></tspan></text></g></g><g id="SvgjsG1064"><path id="SvgjsPath1065" d="M545.228055783429 464.07266435986156L545.228055783429 381.0363321799308L545.228055783429 381.0363321799308L545.228055783429 298" stroke-dasharray="8,5" stroke="#0000ff" stroke-width="2" fill="none" marker-end="url(#SvgjsMarker1066)"></path></g><g id="SvgjsG1068" transform="translate(231.4725184577523,333.08304498269894)"><path id="SvgjsPath1069" d="M 0 0L 114.487284659557 0L 114.487284659557 38.96193771626298L 0 38.96193771626298Z" stroke="none" fill="none"></path><g id="SvgjsG1070"><text id="SvgjsText1071" font-family="微软雅黑" text-anchor="middle" font-size="13px" width="115px" fill="#323232" font-weight="400" align="middle" lineHeight="125%" anchor="middle" family="微软雅黑" size="13px" weight="400" font-style="" opacity="1" y="1.8559688581314902" transform="rotate(0)"><tspan id="SvgjsTspan1072" dy="16" x="57.5"><tspan id="SvgjsTspan1073" style="text-decoration:;">从线上拉取</tspan></tspan><tspan id="SvgjsTspan1074" dy="16" x="57.5"><tspan id="SvgjsTspan1075" style="text-decoration:;">开发分支</tspan></tspan></text></g></g><g id="SvgjsG1076" transform="translate(375.5004101722722,337.08304498269894)"><path id="SvgjsPath1077" d="M 0 0L 178.49958982772773 0L 178.49958982772773 56.73356401384086L 0 56.73356401384086Z" stroke="none" fill="none"></path><g id="SvgjsG1078"><text id="SvgjsText1079" font-family="微软雅黑" text-anchor="middle" font-size="13px" width="179px" fill="#323232" font-weight="400" align="middle" lineHeight="125%" anchor="middle" family="微软雅黑" size="13px" weight="400" font-style="" opacity="1" y="2.741782006920431" transform="rotate(0)"><tspan id="SvgjsTspan1080" dy="16" x="89.5"><tspan id="SvgjsTspan1081" style="text-decoration:;">本地开发代码结束后,需MR合</tspan></tspan><tspan id="SvgjsTspan1082" dy="16" x="89.5"><tspan id="SvgjsTspan1083" style="text-decoration:;">并至测试分支</tspan></tspan><tspan id="SvgjsTspan1084" dy="16" x="89.5"><tspan id="SvgjsTspan1085" style="text-decoration:;">自动触发cicd, 进行环境构建</tspan></tspan></text></g></g><g id="SvgjsG1086"><path id="SvgjsPath1087" d="M736.4536505332239 466.20242214532874L736.4536505332239 322.10121107266434L736.4536505332239 322.10121107266434L736.4536505332239 178" stroke-dasharray="8,5" stroke="#0000ff" stroke-width="2" fill="none" marker-end="url(#SvgjsMarker1088)"></path></g><g id="SvgjsG1090" transform="translate(565.9557013945856,341.34861591695505)"><path id="SvgjsPath1091" d="M 0 0L 196.04429860541438 0L 196.04429860541438 48.20242214532868L 0 48.20242214532868Z" stroke="none" fill="none"></path><g id="SvgjsG1092"><text id="SvgjsText1093" font-family="微软雅黑" text-anchor="middle" font-size="13px" width="197px" fill="#323232" font-weight="400" align="middle" lineHeight="125%" anchor="middle" family="微软雅黑" size="13px" weight="400" font-style="" opacity="1" y="6.476211072664341" transform="rotate(0)"><tspan id="SvgjsTspan1094" dy="16" x="98.5"><tspan id="SvgjsTspan1095" style="text-decoration:;">测试无问题后</tspan></tspan><tspan id="SvgjsTspan1096" dy="16" x="98.5"><tspan id="SvgjsTspan1097" style="text-decoration:;">提交MR合并至线上发布</tspan></tspan></text></g></g><g id="SvgjsG1098"><path id="SvgjsPath1099" d="M345.14109926168993 653.219723183391L708.0705496308449 653.219723183391L708.0705496308449 653.219723183391L1071 653.219723183391" stroke="#ff0000" stroke-width="2" fill="none" marker-end="url(#SvgjsMarker1100)"></path></g><g id="SvgjsG1102" transform="translate(184.67842493847417,608.2318339100347)"><path id="SvgjsPath1103" d="M 0 0L 114.487284659557 0L 114.487284659557 38.96193771626298L 0 38.96193771626298Z" stroke="none" fill="none"></path><g id="SvgjsG1104"><text id="SvgjsText1105" font-family="微软雅黑" text-anchor="middle" font-size="13px" width="115px" fill="#ff0000" font-weight="400" align="middle" lineHeight="125%" anchor="middle" family="微软雅黑" size="13px" weight="400" font-style="" opacity="1" y="9.85596885813149" transform="rotate(0)"><tspan id="SvgjsTspan1106" dy="16" x="57.5"><tspan id="SvgjsTspan1107" style="text-decoration:;">bug修复分支</tspan></tspan></text></g></g><g id="SvgjsG1108"><path id="SvgjsPath1109" d="M349.289802811288 171.780276816609L349.289802811288 406.52595155709344L349.289802811288 406.52595155709344L349.289802811288 641.2716262975779" stroke-dasharray="3,3" stroke="#000000" stroke-width="2" fill="none" marker-end="url(#SvgjsMarker1110)"></path></g><g id="SvgjsG1112" transform="translate(335.2469237079573,653.0380622837371)"><path id="SvgjsPath1113" d="M 0 0L 114.487284659557 0L 114.487284659557 38.96193771626298L 0 38.96193771626298Z" stroke="none" fill="none"></path><g id="SvgjsG1114"><text id="SvgjsText1115" font-family="微软雅黑" text-anchor="middle" font-size="13px" width="115px" fill="#ff0000" font-weight="400" align="middle" lineHeight="125%" anchor="middle" family="微软雅黑" size="13px" weight="400" font-style="" opacity="1" y="9.85596885813149" transform="rotate(0)"><tspan id="SvgjsTspan1116" dy="16" x="57.5"><tspan id="SvgjsTspan1117" style="text-decoration:;">修复, 测试, 发布</tspan></tspan></text></g></g><g id="SvgjsG1118"><path id="SvgjsPath1119" d="M275.14109926168993 72.98788927335642L728.7969647251846 72.98788927335642L728.7969647251846 72.98788927335642L1182.4528301886794 72.98788927335642" stroke="#000000" stroke-width="2" fill="none" marker-end="url(#SvgjsMarker1120)"></path><rect id="SvgjsRect1122" width="31" height="16" x="713.2969647251846" y="64.98788927335642" fill="#ffffff"></rect><text id="SvgjsText1123" font-family="微软雅黑" text-anchor="middle" font-size="13px" width="31px" fill="#323232" font-weight="400" align="top" lineHeight="16px" anchor="middle" family="微软雅黑" size="13px" weight="400" font-style="" opacity="1" y="63.362889273356416" transform="rotate(0)"><tspan id="SvgjsTspan1124" dy="16" x="728.7969647251846"><tspan id="SvgjsTspan1125" style="text-decoration:;">main</tspan></tspan></text></g><g id="SvgjsG1126" transform="translate(200.32157506152583,48)"><path id="SvgjsPath1127" d="M 0 0L 66 0L 66 41L 0 41Z" stroke="none" fill="none"></path><g id="SvgjsG1128"><text id="SvgjsText1129" font-family="微软雅黑" text-anchor="middle" font-size="13px" width="66px" fill="#323232" font-weight="400" align="middle" lineHeight="125%" anchor="middle" family="微软雅黑" size="13px" weight="400" font-style="" opacity="1" y="10.875" transform="rotate(0)"><tspan id="SvgjsTspan1130" dy="16" x="33"><tspan id="SvgjsTspan1131" style="text-decoration:;">稳定版本</tspan></tspan></text></g></g><g id="SvgjsG1132"><path id="SvgjsPath1133" d="M283.5773817382593 77L283.5773817382593 119L283.5773817382593 119L283.5773817382593 161" stroke-dasharray="3,3" stroke="#323232" stroke-width="2" fill="none" marker-end="url(#SvgjsMarker1134)"></path></g><g id="SvgjsG1136" transform="translate(25,25)"><path id="SvgjsPath1137" d="M 0 0L 148 0L 164 16L 164 87L 0 87L 0 0Z" stroke="none" fill-opacity="1" fill="#ffffaa"></path><path id="SvgjsPath1138" d="M 148 0L 148 16L 164 16Z" stroke="none" fill-opacity="1" fill="#cdcdcd"></path><path id="SvgjsPath1139" d="M 0 0L 148 0L 164 16L 164 87L 0 87L 0 0Z" stroke="none" fill="none"></path><g id="SvgjsG1140"><text id="SvgjsText1141" font-family="微软雅黑" text-anchor="middle" font-size="13px" width="144px" fill="#323232" font-weight="400" align="middle" lineHeight="125%" anchor="middle" family="微软雅黑" size="13px" weight="400" font-style="" opacity="1" y="17.875" transform="rotate(0)"><tspan id="SvgjsTspan1142" dy="16" x="82"><tspan id="SvgjsTspan1143" style="text-decoration:;">main:</tspan></tspan><tspan id="SvgjsTspan1144" dy="16" x="82"><tspan id="SvgjsTspan1145" style="text-decoration:;">保证提供系统性稳定的功</tspan></tspan><tspan id="SvgjsTspan1146" dy="16" x="82"><tspan id="SvgjsTspan1147" style="text-decoration:;">能版本</tspan></tspan></text></g></g><g id="SvgjsG1148" transform="translate(25,144)"><path id="SvgjsPath1149" d="M 0 0L 148 0L 164 16L 164 87L 0 87L 0 0Z" stroke="none" fill-opacity="1" fill="#ffffaa"></path><path id="SvgjsPath1150" d="M 148 0L 148 16L 164 16Z" stroke="none" fill-opacity="1" fill="#cdcdcd"></path><path id="SvgjsPath1151" d="M 0 0L 148 0L 164 16L 164 87L 0 87L 0 0Z" stroke="none" fill="none"></path><g id="SvgjsG1152"><text id="SvgjsText1153" font-family="微软雅黑" text-anchor="middle" font-size="13px" width="144px" fill="#323232" font-weight="400" align="middle" lineHeight="125%" anchor="middle" family="微软雅黑" size="13px" weight="400" font-style="" opacity="1" y="17.875" transform="rotate(0)"><tspan id="SvgjsTspan1154" dy="16" x="82"><tspan id="SvgjsTspan1155" style="text-decoration:;">develop:</tspan></tspan><tspan id="SvgjsTspan1156" dy="16" x="82"><tspan id="SvgjsTspan1157" style="text-decoration:;">线上版本, 功能上会较稳</tspan></tspan><tspan id="SvgjsTspan1158" dy="16" x="82"><tspan id="SvgjsTspan1159" style="text-decoration:;">定版提前几个</tspan><tspan id="SvgjsTspan1160" style="text-decoration:;font-size: inherit;">版本</tspan></tspan></text></g></g><g id="SvgjsG1161" transform="translate(25,271.87543252595157)"><path id="SvgjsPath1162" d="M 0 0L 148 0L 164 16L 164 87L 0 87L 0 0Z" stroke="none" fill-opacity="1" fill="#ffffaa"></path><path id="SvgjsPath1163" d="M 148 0L 148 16L 164 16Z" stroke="none" fill-opacity="1" fill="#cdcdcd"></path><path id="SvgjsPath1164" d="M 0 0L 148 0L 164 16L 164 87L 0 87L 0 0Z" stroke="none" fill="none"></path><g id="SvgjsG1165"><text id="SvgjsText1166" font-family="微软雅黑" text-anchor="middle" font-size="13px" width="144px" fill="#323232" font-weight="400" align="middle" lineHeight="125%" anchor="middle" family="微软雅黑" size="13px" weight="400" font-style="" opacity="1" y="17.875" transform="rotate(0)"><tspan id="SvgjsTspan1167" dy="16" x="82"><tspan id="SvgjsTspan1168" style="text-decoration:;">beta:</tspan></tspan><tspan id="SvgjsTspan1169" dy="16" x="82"><tspan id="SvgjsTspan1170" style="text-decoration:;">测试版本, 新功能上线会</tspan></tspan><tspan id="SvgjsTspan1171" dy="16" x="82"><tspan id="SvgjsTspan1172" style="text-decoration:;">预先内测试环境验收</tspan><tspan id="SvgjsTspan1173" style="text-decoration:;font-size: inherit;"> </tspan></tspan></text></g></g><g id="SvgjsG1174" transform="translate(25,420)"><path id="SvgjsPath1175" d="M 0 0L 148 0L 164 16L 164 87L 0 87L 0 0Z" stroke="none" fill-opacity="1" fill="#ffffaa"></path><path id="SvgjsPath1176" d="M 148 0L 148 16L 164 16Z" stroke="none" fill-opacity="1" fill="#cdcdcd"></path><path id="SvgjsPath1177" d="M 0 0L 148 0L 164 16L 164 87L 0 87L 0 0Z" stroke="none" fill="none"></path><g id="SvgjsG1178"><text id="SvgjsText1179" font-family="微软雅黑" text-anchor="middle" font-size="13px" width="144px" fill="#323232" font-weight="400" align="middle" lineHeight="125%" anchor="middle" family="微软雅黑" size="13px" weight="400" font-style="" opacity="1" y="17.875" transform="rotate(0)"><tspan id="SvgjsTspan1180" dy="16" x="82"><tspan id="SvgjsTspan1181" style="text-decoration:;">feature:</tspan></tspan><tspan id="SvgjsTspan1182" dy="16" x="82"><tspan id="SvgjsTspan1183" style="text-decoration:;">开发人员日常开发的代码</tspan></tspan><tspan id="SvgjsTspan1184" dy="16" x="82"><tspan id="SvgjsTspan1185" style="text-decoration:;">分支</tspan></tspan></text></g></g><g id="SvgjsG1186" transform="translate(25,584.2128027681661)"><path id="SvgjsPath1187" d="M 0 0L 148 0L 164 16L 164 87L 0 87L 0 0Z" stroke="none" fill-opacity="1" fill="#ffffaa"></path><path id="SvgjsPath1188" d="M 148 0L 148 16L 164 16Z" stroke="none" fill-opacity="1" fill="#cdcdcd"></path><path id="SvgjsPath1189" d="M 0 0L 148 0L 164 16L 164 87L 0 87L 0 0Z" stroke="none" fill="none"></path><g id="SvgjsG1190"><text id="SvgjsText1191" font-family="微软雅黑" text-anchor="middle" font-size="13px" width="144px" fill="#323232" font-weight="400" align="middle" lineHeight="125%" anchor="middle" family="微软雅黑" size="13px" weight="400" font-style="" opacity="1" y="25.875" transform="rotate(0)"><tspan id="SvgjsTspan1192" dy="16" x="82"><tspan id="SvgjsTspan1193" style="text-decoration:;">hotfix:</tspan></tspan><tspan id="SvgjsTspan1194" dy="16" x="82"><tspan id="SvgjsTspan1195" style="text-decoration:;">线上异常的紧急修复分支</tspan></tspan></text></g></g><g id="SvgjsG1196"><path id="SvgjsPath1197" d="M1126 164L1126 122L1126 122L1126 80" stroke-dasharray="8,5" stroke="#323232" stroke-width="2" fill="none" marker-end="url(#SvgjsMarker1198)"></path></g><g id="SvgjsG1200" transform="translate(1129,95)"><path id="SvgjsPath1201" d="M 0 0L 173 0L 173 64L 0 64Z" stroke="none" fill="none"></path><g id="SvgjsG1202"><text id="SvgjsText1203" font-family="微软雅黑" text-anchor="middle" font-size="13px" width="173px" fill="#323232" font-weight="400" align="middle" lineHeight="125%" anchor="middle" family="微软雅黑" size="13px" weight="400" font-style="" opacity="1" y="14.375" transform="rotate(0)"><tspan id="SvgjsTspan1204" dy="16" x="86.5"><tspan id="SvgjsTspan1205" style="text-decoration:;">稳定</tspan><tspan id="SvgjsTspan1206" style="text-decoration:;font-size: inherit;">功能版本迭代后,</tspan></tspan><tspan id="SvgjsTspan1207" dy="16" x="86.5"><tspan id="SvgjsTspan1208" style="text-decoration:;"> 由develop合并至main分支</tspan></tspan></text></g></g><g id="SvgjsG1209"><path id="SvgjsPath1210" d="M547 464.0467128027682L637 464.0467128027682L637 464.0467128027682L727 464.0467128027682" stroke="#0000ff" stroke-width="2" fill="none" marker-end="url(#SvgjsMarker1211)"></path><rect id="SvgjsRect1213" width="44" height="16" x="615" y="456.0467128027682" fill="#ffffff"></rect><text id="SvgjsText1214" font-family="微软雅黑" text-anchor="middle" font-size="13px" width="44px" fill="#323232" font-weight="400" align="top" lineHeight="16px" anchor="middle" family="微软雅黑" size="13px" weight="400" font-style="" opacity="1" y="454.4217128027682" transform="rotate(0)"><tspan id="SvgjsTspan1215" dy="16" x="637"><tspan id="SvgjsTspan1216" style="text-decoration:;">feature</tspan></tspan></text></g><g id="SvgjsG1217"><path id="SvgjsPath1218" d="M1053 642L1053 407.5L1053 407.5L1053 173" stroke-dasharray="8,5" stroke="#ff0000" stroke-width="2" fill="none" marker-end="url(#SvgjsMarker1219)"></path></g><g id="SvgjsG1221"><path id="SvgjsPath1222" d="M1012 641L1012 467.40787197231833L1012 467.40787197231833L1012 293.81574394463667" stroke-dasharray="8,5" stroke="#ff0000" stroke-width="2" fill="none" marker-end="url(#SvgjsMarker1223)"></path></g><g id="SvgjsG1225" transform="translate(886,556)"><path id="SvgjsPath1226" d="M 0 0L 120 0L 120 40L 0 40Z" stroke="none" fill="none"></path><g id="SvgjsG1227"><text id="SvgjsText1228" font-family="微软雅黑" text-anchor="middle" font-size="13px" width="120px" fill="#323232" font-weight="400" align="middle" lineHeight="125%" anchor="middle" family="微软雅黑" size="13px" weight="400" font-style="" opacity="1" y="2.375" transform="rotate(0)"><tspan id="SvgjsTspan1229" dy="16" x="60"><tspan id="SvgjsTspan1230" style="text-decoration:;">异常bug修复</tspan></tspan><tspan id="SvgjsTspan1231" dy="16" x="60"><tspan id="SvgjsTspan1232" style="text-decoration:;">提交测试触发cicd</tspan></tspan></text></g></g><g id="SvgjsG1233" transform="translate(1035,547.3840830449826)"><path id="SvgjsPath1234" d="M 0 0L 204 0L 204 57.23183391003465L 0 57.23183391003465Z" stroke="none" fill="none"></path><g id="SvgjsG1235"><text id="SvgjsText1236" font-family="微软雅黑" text-anchor="middle" font-size="13px" width="204px" fill="#323232" font-weight="400" align="middle" lineHeight="125%" anchor="middle" family="微软雅黑" size="13px" weight="400" font-style="" opacity="1" y="18.990916955017326" transform="rotate(0)"><tspan id="SvgjsTspan1237" dy="16" x="102"><tspan id="SvgjsTspan1238" style="text-decoration:;">测试通过, 提交至线上部署</tspan></tspan></text></g></g><g id="SvgjsG1239" transform="translate(467,476)"><path id="SvgjsPath1240" d="M 0 0L 150 0L 150 40L 0 40Z" stroke="none" fill="none"></path><g id="SvgjsG1241"><text id="SvgjsText1242" font-family="微软雅黑" text-anchor="middle" font-size="13px" width="150px" fill="#323232" font-weight="400" align="middle" lineHeight="125%" anchor="middle" family="微软雅黑" size="13px" weight="400" font-style="" opacity="1" y="10.375" transform="rotate(0)"><tspan id="SvgjsTspan1243" dy="16" x="75"><tspan id="SvgjsTspan1244" style="text-decoration:;">功能A 开发迭代</tspan></tspan></text></g></g><g id="SvgjsG1245"><path id="SvgjsPath1246" d="M745.273174733388 461.916955017301L797.636587366694 461.916955017301L797.636587366694 461.916955017301L850 461.916955017301" stroke="#0000ff" stroke-width="2" fill="none" marker-end="url(#SvgjsMarker1247)"></path><rect id="SvgjsRect1249" width="44" height="16" x="775.636587366694" y="453.916955017301" fill="#ffffff"></rect><text id="SvgjsText1250" font-family="微软雅黑" text-anchor="middle" font-size="13px" width="44px" fill="#323232" font-weight="400" align="top" lineHeight="16px" anchor="middle" family="微软雅黑" size="13px" weight="400" font-style="" opacity="1" y="452.291955017301" transform="rotate(0)"><tspan id="SvgjsTspan1251" dy="16" x="797.636587366694"><tspan id="SvgjsTspan1252" style="text-decoration:;">feature</tspan></tspan></text></g><g id="SvgjsG1253"><path id="SvgjsPath1254" d="M852.501230516817 462.9429065743944L852.501230516817 379.90657439446363L852.501230516817 379.90657439446363L852.501230516817 296.8702422145328" stroke-dasharray="8,5" stroke="#0000ff" stroke-width="2" fill="none" marker-end="url(#SvgjsMarker1255)"></path></g><g id="SvgjsG1257"><path id="SvgjsPath1258" d="M971.7268252666117 463.07266435986156L971.7268252666117 318.97145328719716L971.7268252666117 318.97145328719716L971.7268252666117 174.87024221453282" stroke-dasharray="8,5" stroke="#0000ff" stroke-width="2" fill="none" marker-end="url(#SvgjsMarker1259)"></path></g><g id="SvgjsG1261"><path id="SvgjsPath1262" d="M860.273174733388 462.916955017301L909.636587366694 462.916955017301L909.636587366694 462.916955017301L959 462.916955017301" stroke="#0000ff" stroke-width="2" fill="none" marker-end="url(#SvgjsMarker1263)"></path><rect id="SvgjsRect1265" width="44" height="16" x="887.636587366694" y="454.916955017301" fill="#ffffff"></rect><text id="SvgjsText1266" font-family="微软雅黑" text-anchor="middle" font-size="13px" width="44px" fill="#323232" font-weight="400" align="top" lineHeight="16px" anchor="middle" family="微软雅黑" size="13px" weight="400" font-style="" opacity="1" y="453.291955017301" transform="rotate(0)"><tspan id="SvgjsTspan1267" dy="16" x="909.636587366694"><tspan id="SvgjsTspan1268" style="text-decoration:;">feature</tspan></tspan></text></g><g id="SvgjsG1269" transform="translate(776,471)"><path id="SvgjsPath1270" d="M 0 0L 150 0L 150 40L 0 40Z" stroke="none" fill="none"></path><g id="SvgjsG1271"><text id="SvgjsText1272" font-family="微软雅黑" text-anchor="middle" font-size="13px" width="150px" fill="#323232" font-weight="400" align="middle" lineHeight="125%" anchor="middle" family="微软雅黑" size="13px" weight="400" font-style="" opacity="1" y="10.375" transform="rotate(0)"><tspan id="SvgjsTspan1273" dy="16" x="75"><tspan id="SvgjsTspan1274" style="text-decoration:;">功能B 开发迭代</tspan></tspan></text></g></g><g id="SvgjsG1275" transform="translate(1185,251.26297577854672)"><path id="SvgjsPath1276" d="M 0 0L 195 0L 211 16L 211 157.14619377162632L 0 157.14619377162632L 0 0Z" stroke="none" fill-opacity="1" fill="#ffffaa"></path><path id="SvgjsPath1277" d="M 195 0L 195 16L 211 16Z" stroke="none" fill-opacity="1" fill="#cdcdcd"></path><path id="SvgjsPath1278" d="M 0 0L 195 0L 211 16L 211 157.14619377162632L 0 157.14619377162632L 0 0Z" stroke="none" fill="none"></path><g id="SvgjsG1279"><text id="SvgjsText1280" font-family="微软雅黑" text-anchor="middle" font-size="13px" width="191px" fill="#323232" font-weight="400" align="middle" lineHeight="125%" anchor="middle" family="微软雅黑" size="13px" weight="400" font-style="" opacity="1" y="20.948096885813158" transform="rotate(0)"><tspan id="SvgjsTspan1281" dy="16" x="105.5"><tspan id="SvgjsTspan1282" style="text-decoration:;">DevOps工作流</tspan></tspan><tspan id="SvgjsTspan1283" dy="16" x="105.5"><tspan id="SvgjsTspan1284" style="text-decoration:;"> </tspan></tspan><tspan id="SvgjsTspan1285" dy="16" x="105.5"><tspan id="SvgjsTspan1286" style="text-decoration:;">由feature进行开发功能, 开发完</tspan></tspan><tspan id="SvgjsTspan1287" dy="16" x="105.5"><tspan id="SvgjsTspan1288" style="text-decoration:;">毕合并至beta分支进行功能测试.</tspan></tspan><tspan id="SvgjsTspan1289" dy="16" x="105.5"><tspan id="SvgjsTspan1290" style="text-decoration:;"> </tspan></tspan><tspan id="SvgjsTspan1291" dy="16" x="105.5"><tspan id="SvgjsTspan1292" style="text-decoration:;">推动功能开发的环节中, 会不停的</tspan></tspan><tspan id="SvgjsTspan1293" dy="16" x="105.5"><tspan id="SvgjsTspan1294" style="text-decoration:;">滚动式开发, 环形上升的模式.</tspan></tspan></text></g></g></svg>