<svg id="SvgjsSvg1006" width="1691.5" height="734.625" xmlns="http://www.w3.org/2000/svg" version="1.1" xmlns:xlink="http://www.w3.org/1999/xlink" xmlns:svgjs="http://svgjs.com/svgjs"><defs id="SvgjsDefs1007"><marker id="SvgjsMarker1044" markerWidth="16" markerHeight="12" refX="16" refY="6" viewBox="0 0 16 12" orient="auto" markerUnits="userSpaceOnUse" stroke-dasharray="0,0"><path id="SvgjsPath1045" d="M0,2 L14,6 L0,11 L0,2" fill="#323232" stroke="#323232" stroke-width="2"></path></marker><marker id="SvgjsMarker1084" markerWidth="16" markerHeight="12" refX="16" refY="6" viewBox="0 0 16 12" orient="auto" markerUnits="userSpaceOnUse" stroke-dasharray="0,0"><path id="SvgjsPath1085" d="M0,2 L14,6 L0,11 L0,2" fill="#323232" stroke="#323232" stroke-width="2"></path></marker><marker id="SvgjsMarker1166" markerWidth="16" markerHeight="12" refX="16" refY="6" viewBox="0 0 16 12" orient="auto" markerUnits="userSpaceOnUse" stroke-dasharray="0,0"><path id="SvgjsPath1167" d="M0,2 L14,6 L0,11 L0,2" fill="#323232" stroke="#323232" stroke-width="2"></path></marker><marker id="SvgjsMarker1170" markerWidth="16" markerHeight="12" refX="16" refY="6" viewBox="0 0 16 12" orient="auto" markerUnits="userSpaceOnUse" stroke-dasharray="0,0"><path id="SvgjsPath1171" d="M0,2 L14,6 L0,11 L0,2" fill="#323232" stroke="#323232" stroke-width="2"></path></marker><marker id="SvgjsMarker1174" markerWidth="16" markerHeight="12" refX="16" refY="6" viewBox="0 0 16 12" orient="auto" markerUnits="userSpaceOnUse" stroke-dasharray="0,0"><path id="SvgjsPath1175" d="M0,2 L14,6 L0,11 L0,2" fill="#323232" stroke="#323232" stroke-width="2"></path></marker><marker id="SvgjsMarker1204" markerWidth="16" markerHeight="12" refX="16" refY="6" viewBox="0 0 16 12" orient="auto" markerUnits="userSpaceOnUse" stroke-dasharray="0,0"><path id="SvgjsPath1205" d="M0,2 L14,6 L0,11 L0,2" fill="#323232" stroke="#323232" stroke-width="2"></path></marker><marker id="SvgjsMarker1208" markerWidth="16" markerHeight="12" refX="16" refY="6" viewBox="0 0 16 12" orient="auto" markerUnits="userSpaceOnUse" stroke-dasharray="0,0"><path id="SvgjsPath1209" d="M0,2 L14,6 L0,11 L0,2" fill="#323232" stroke="#323232" stroke-width="2"></path></marker><marker id="SvgjsMarker1260" markerWidth="16" markerHeight="12" refX="16" refY="6" viewBox="0 0 16 12" orient="auto" markerUnits="userSpaceOnUse" stroke-dasharray="0,0"><path id="SvgjsPath1261" d="M0,2 L14,6 L0,11 L0,2" fill="#323232" stroke="#323232" stroke-width="2"></path></marker><marker id="SvgjsMarker1264" markerWidth="16" markerHeight="12" refX="16" refY="6" viewBox="0 0 16 12" orient="auto" markerUnits="userSpaceOnUse" stroke-dasharray="0,0"><path id="SvgjsPath1265" d="M0,2 L14,6 L0,11 L0,2" fill="#323232" stroke="#323232" stroke-width="2"></path></marker><marker id="SvgjsMarker1268" markerWidth="16" markerHeight="12" refX="16" refY="6" viewBox="0 0 16 12" orient="auto" markerUnits="userSpaceOnUse" stroke-dasharray="0,0"><path id="SvgjsPath1269" d="M0,2 L14,6 L0,11 L0,2" fill="#323232" stroke="#323232" stroke-width="2"></path></marker><marker id="SvgjsMarker1286" markerWidth="16" markerHeight="12" refX="16" refY="6" viewBox="0 0 16 12" orient="auto" markerUnits="userSpaceOnUse" stroke-dasharray="0,0"><path id="SvgjsPath1287" d="M0,2 L14,6 L0,11 L0,2" fill="#323232" stroke="#323232" stroke-width="2"></path></marker><marker id="SvgjsMarker1304" markerWidth="16" markerHeight="12" refX="16" refY="6" viewBox="0 0 16 12" orient="auto" markerUnits="userSpaceOnUse" stroke-dasharray="0,0"><path id="SvgjsPath1305" d="M0,2 L14,6 L0,11 L0,2" fill="#323232" stroke="#323232" stroke-width="2"></path></marker><marker id="SvgjsMarker1308" markerWidth="16" markerHeight="12" refX="16" refY="6" viewBox="0 0 16 12" orient="auto" markerUnits="userSpaceOnUse" stroke-dasharray="0,0"><path id="SvgjsPath1309" d="M0,2 L14,6 L0,11 L0,2" fill="#323232" stroke="#323232" stroke-width="2"></path></marker><marker id="SvgjsMarker1312" markerWidth="16" markerHeight="12" refX="16" refY="6" viewBox="0 0 16 12" orient="auto" markerUnits="userSpaceOnUse" stroke-dasharray="0,0"><path id="SvgjsPath1313" d="M0,2 L14,6 L0,11 L0,2" fill="#323232" stroke="#323232" stroke-width="2"></path></marker><marker id="SvgjsMarker1316" markerWidth="16" markerHeight="12" refX="16" refY="6" viewBox="0 0 16 12" orient="auto" markerUnits="userSpaceOnUse" stroke-dasharray="0,0"><path id="SvgjsPath1317" d="M0,2 L14,6 L0,11 L0,2" fill="#323232" stroke="#323232" stroke-width="2"></path></marker><marker id="SvgjsMarker1320" markerWidth="16" markerHeight="12" refX="16" refY="6" viewBox="0 0 16 12" orient="auto" markerUnits="userSpaceOnUse" stroke-dasharray="0,0"><path id="SvgjsPath1321" d="M0,2 L14,6 L0,11 L0,2" fill="#323232" stroke="#323232" stroke-width="2"></path></marker><marker id="SvgjsMarker1324" markerWidth="16" markerHeight="12" refX="16" refY="6" viewBox="0 0 16 12" orient="auto" markerUnits="userSpaceOnUse" stroke-dasharray="0,0"><path id="SvgjsPath1325" d="M0,2 L14,6 L0,11 L0,2" fill="#323232" stroke="#323232" stroke-width="2"></path></marker><marker id="SvgjsMarker1336" markerWidth="16" markerHeight="12" refX="16" refY="6" viewBox="0 0 16 12" orient="auto" markerUnits="userSpaceOnUse" stroke-dasharray="0,0"><path id="SvgjsPath1337" d="M0,2 L14,6 L0,11 L0,2" fill="#323232" stroke="#323232" stroke-width="2"></path></marker><marker id="SvgjsMarker1370" markerWidth="16" markerHeight="12" refX="16" refY="6" viewBox="0 0 16 12" orient="auto" markerUnits="userSpaceOnUse" stroke-dasharray="0,0"><path id="SvgjsPath1371" d="M0,2 L14,6 L0,11 L0,2" fill="#323232" stroke="#323232" stroke-width="2"></path></marker></defs><g id="SvgjsG1008" transform="translate(865,159.1875)"><path id="SvgjsPath1009" d="M 0 0L 381 0L 381 219L 0 219Z" stroke="rgba(50,50,50,1)" stroke-width="2" fill-opacity="1" fill="#ffffff"></path><g id="SvgjsG1010"><text id="SvgjsText1011" font-family="微软雅黑" text-anchor="middle" font-size="13px" width="361px" fill="#323232" font-weight="400" align="middle" lineHeight="125%" anchor="middle" family="微软雅黑" size="13px" weight="400" font-style="" opacity="1" y="99.875" transform="rotate(0)"></text></g></g><g id="SvgjsG1012" transform="translate(919.3044776119405,182.53301370901374)"><path id="SvgjsPath1013" d="M 0 0L 270.39104477611943 0L 270.39104477611943 94.30897258197253L 0 94.30897258197253Z" stroke="rgba(50,50,50,1)" stroke-width="2" fill-opacity="1" fill="#ffffff"></path><g id="SvgjsG1014"><text id="SvgjsText1015" font-family="微软雅黑" text-anchor="middle" font-size="13px" width="251px" fill="#323232" font-weight="400" align="middle" lineHeight="125%" anchor="middle" family="微软雅黑" size="13px" weight="400" font-style="" opacity="1" y="37.52948629098626" transform="rotate(0)"></text></g></g><g id="SvgjsG1016" transform="translate(193.64462809917353,111.25664893617021)"><path id="SvgjsPath1017" d="M 0 0L 437.35537190082647 0L 437.35537190082647 314.8617021276596L 0 314.8617021276596Z" stroke="rgba(50,50,50,1)" stroke-width="2" fill-opacity="1" fill="#ffffff"></path><g id="SvgjsG1018"><text id="SvgjsText1019" font-family="微软雅黑" text-anchor="middle" font-size="13px" width="418px" fill="#323232" font-weight="400" align="middle" lineHeight="125%" anchor="middle" family="微软雅黑" size="13px" weight="400" font-style="" opacity="1" y="147.8058510638298" transform="rotate(0)"></text></g></g><g id="SvgjsG1020" transform="translate(215,181.7329259973145)"><path id="SvgjsPath1021" d="M 0 0L 367.5539309175672 0L 367.5539309175672 213L 0 213Z" stroke="rgba(50,50,50,1)" stroke-width="2" fill-opacity="1" fill="#ffffff"></path><g id="SvgjsG1022"><text id="SvgjsText1023" font-family="微软雅黑" text-anchor="middle" font-size="13px" width="348px" fill="#323232" font-weight="400" align="middle" lineHeight="125%" anchor="middle" family="微软雅黑" size="13px" weight="400" font-style="" opacity="1" y="96.875" transform="rotate(0)"></text></g></g><g id="SvgjsG1024" transform="translate(325.6092392456029,236.05940405986132)"><path id="SvgjsPath1025" d="M 0 42.5C 0 -14.166666666666666 92.64208518753968 -14.166666666666666 92.64208518753968 42.5C 92.64208518753968 99.16666666666667 0 99.16666666666667 0 42.5Z" stroke="rgba(50,50,50,1)" stroke-width="2" fill-opacity="1" fill="#ffffff"></path><g id="SvgjsG1026"><text id="SvgjsText1027" font-family="微软雅黑" text-anchor="middle" font-size="13px" width="73px" fill="#323232" font-weight="400" align="middle" lineHeight="125%" anchor="middle" family="微软雅黑" size="13px" weight="400" font-style="" opacity="1" y="32.875" transform="rotate(0)"><tspan id="SvgjsTspan1028" dy="16" x="46.5"><tspan id="SvgjsTspan1029" style="text-decoration:;">web服务</tspan></tspan></text></g></g><g id="SvgjsG1030" transform="translate(193.99999999999997,180.6875)"><path id="SvgjsPath1031" d="M 0 0L 146 0L 146 44L 0 44Z" stroke="none" fill="none"></path><g id="SvgjsG1032"><text id="SvgjsText1033" font-family="微软雅黑" text-anchor="middle" font-size="13px" width="146px" fill="#323232" font-weight="400" align="middle" lineHeight="125%" anchor="middle" family="微软雅黑" size="13px" weight="400" font-style="" opacity="1" y="12.375" transform="rotate(0)"><tspan id="SvgjsTspan1034" dy="16" x="73"><tspan id="SvgjsTspan1035" style="text-decoration:;">应用服务器A</tspan></tspan></text></g></g><g id="SvgjsG1036" transform="translate(443.7204916295825,188.6875)"><path id="SvgjsPath1037" d="M 0 0L 99 0L 99 28L 0 28Z" stroke="rgba(50,50,50,1)" stroke-width="2" fill-opacity="1" fill="#ffffff"></path><g id="SvgjsG1038"><text id="SvgjsText1039" font-family="微软雅黑" text-anchor="middle" font-size="13px" width="79px" fill="#323232" font-weight="400" align="middle" lineHeight="125%" anchor="middle" family="微软雅黑" size="13px" weight="400" font-style="" opacity="1" y="4.375" transform="rotate(0)"><tspan id="SvgjsTspan1040" dy="16" x="49.5"><tspan id="SvgjsTspan1041" style="text-decoration:;">nginx</tspan></tspan></text></g></g><g id="SvgjsG1042"><path id="SvgjsPath1043" d="M493.2204916295825 216.6875L493.2204916295825 278.5594040598612L418.2513244331426 278.5594040598612" stroke="#323232" stroke-width="2" fill="none" marker-end="url(#SvgjsMarker1044)"></path></g><g id="SvgjsG1046" transform="translate(176,112.6875)"><path id="SvgjsPath1047" d="M 0 0L 146 0L 146 44L 0 44Z" stroke="none" fill="none"></path><g id="SvgjsG1048"><text id="SvgjsText1049" font-family="微软雅黑" text-anchor="middle" font-size="13px" width="146px" fill="#323232" font-weight="400" align="middle" lineHeight="125%" anchor="middle" family="微软雅黑" size="13px" weight="400" font-style="" opacity="1" y="12.375" transform="rotate(0)"><tspan id="SvgjsTspan1050" dy="16" x="73"><tspan id="SvgjsTspan1051" style="text-decoration:;">阿里云负载均衡</tspan></tspan></text></g></g><g id="SvgjsG1052" transform="translate(376.0413223140496,25.004704301075265)"><path id="SvgjsPath1053" d="M 20.130000000000003 0L 40.870000000000005 0L 40.870000000000005 54.5L 61 54.5L 30.5 85L 0 54.5L 20.130000000000003 54.5L 20.130000000000003 0Z" stroke="rgba(50,50,50,1)" stroke-width="2" fill-opacity="1" fill="#ffffff"></path><g id="SvgjsG1054"><text id="SvgjsText1055" font-family="微软雅黑" text-anchor="middle" font-size="13px" width="86px" fill="#323232" font-weight="400" align="middle" lineHeight="125%" anchor="middle" family="微软雅黑" size="13px" weight="400" font-style="" opacity="1" y="28.625" transform="rotate(0)"></text></g></g><g id="SvgjsG1056" transform="translate(350.2130748039839,109.44018817204301)"><path id="SvgjsPath1057" d="M 0 0L 116 0L 116 28L 0 28Z" stroke="none" fill="none"></path><g id="SvgjsG1058"><text id="SvgjsText1059" font-family="微软雅黑" text-anchor="middle" font-size="13px" width="116px" fill="#323232" font-weight="400" align="middle" lineHeight="125%" anchor="middle" family="微软雅黑" size="13px" weight="400" font-style="" opacity="1" y="4.375" transform="rotate(0)"><tspan id="SvgjsTspan1060" dy="16" x="58"><tspan id="SvgjsTspan1061" style="text-decoration:;">80 | 443</tspan></tspan></text></g></g><g id="SvgjsG1062" transform="translate(365.48209366391177,188.6875)"><path id="SvgjsPath1063" d="M 0 0L 66.58974358974359 0L 66.58974358974359 28L 0 28Z" stroke="none" fill="none"></path><g id="SvgjsG1064"><text id="SvgjsText1065" font-family="微软雅黑" text-anchor="middle" font-size="13px" width="67px" fill="#323232" font-weight="400" align="middle" lineHeight="125%" anchor="middle" family="微软雅黑" size="13px" weight="400" font-style="" opacity="1" y="4.375" transform="rotate(0)"><tspan id="SvgjsTspan1066" dy="16" x="33.5"><tspan id="SvgjsTspan1067" style="text-decoration:;">:80</tspan></tspan></text></g></g><g id="SvgjsG1068" transform="translate(485.2148760330578,112.6875)"><path id="SvgjsPath1069" d="M 0 0L 146 0L 146 44L 0 44Z" stroke="none" fill="none"></path><g id="SvgjsG1070"><text id="SvgjsText1071" font-family="微软雅黑" text-anchor="middle" font-size="13px" width="146px" fill="#323232" font-weight="400" align="middle" lineHeight="125%" anchor="middle" family="微软雅黑" size="13px" weight="400" font-style="" opacity="1" y="4.375" transform="rotate(0)"><tspan id="SvgjsTspan1072" dy="16" x="73"><tspan id="SvgjsTspan1073" style="text-decoration:;">(由阿里云做</tspan></tspan><tspan id="SvgjsTspan1074" dy="16" x="73"><tspan id="SvgjsTspan1075" style="text-decoration:;">ssl加密解密)</tspan></tspan></text></g></g><g id="SvgjsG1076" transform="translate(224.50000000000003,331.4546970574489)"><path id="SvgjsPath1077" d="M 0 0L 85 0L 85 38L 0 38Z" stroke="rgba(50,50,50,1)" stroke-width="2" fill-opacity="1" fill="#ffffff"></path><g id="SvgjsG1078"><text id="SvgjsText1079" font-family="微软雅黑" text-anchor="middle" font-size="13px" width="65px" fill="#323232" font-weight="400" align="middle" lineHeight="125%" anchor="middle" family="微软雅黑" size="13px" weight="400" font-style="" opacity="1" y="9.375" transform="rotate(0)"><tspan id="SvgjsTspan1080" dy="16" x="42.5"><tspan id="SvgjsTspan1081" style="text-decoration:;">log日志</tspan></tspan></text></g></g><g id="SvgjsG1082"><path id="SvgjsPath1083" d="M408.6776859504132 137.440188172043L408.6776859504132 153.87671969208796L408.6776859504132 153.87671969208796L408.6776859504132 173.8734822390213" stroke="#323232" stroke-width="2" fill="none" marker-end="url(#SvgjsMarker1084)"></path></g><g id="SvgjsG1086" transform="translate(568,495.6875)"><path id="SvgjsPath1087" d="M 0 0L 342 0L 342 213L 0 213Z" stroke="rgba(50,50,50,1)" stroke-width="2" fill-opacity="1" fill="#ffffff"></path><g id="SvgjsG1088"><text id="SvgjsText1089" font-family="微软雅黑" text-anchor="middle" font-size="13px" width="322px" fill="#323232" font-weight="400" align="middle" lineHeight="125%" anchor="middle" family="微软雅黑" size="13px" weight="400" font-style="" opacity="1" y="96.875" transform="rotate(0)"></text></g></g><g id="SvgjsG1090" transform="translate(572,493.6875)"><path id="SvgjsPath1091" d="M 0 0L 121 0L 121 44L 0 44Z" stroke="none" fill="none"></path><g id="SvgjsG1092"><text id="SvgjsText1093" font-family="微软雅黑" text-anchor="middle" font-size="13px" width="121px" fill="#323232" font-weight="400" align="middle" lineHeight="125%" anchor="middle" family="微软雅黑" size="13px" weight="400" font-style="" opacity="1" y="12.375" transform="rotate(0)"><tspan id="SvgjsTspan1094" dy="16" x="60.5"><tspan id="SvgjsTspan1095" style="text-decoration:;">查看日志, 及时排错</tspan></tspan></text></g></g><g id="SvgjsG1096" transform="translate(172,593.6875)"><path id="SvgjsPath1097" d="M 0 0L 154 0L 154 113L 0 113Z" stroke="rgba(50,50,50,1)" stroke-width="2" fill-opacity="1" fill="#ffffff"></path><g id="SvgjsG1098"><text id="SvgjsText1099" font-family="微软雅黑" text-anchor="middle" font-size="13px" width="134px" fill="#323232" font-weight="400" align="middle" lineHeight="125%" anchor="middle" family="微软雅黑" size="13px" weight="400" font-style="" opacity="1" y="46.875" transform="rotate(0)"><tspan id="SvgjsTspan1100" dy="16" x="77"><tspan id="SvgjsTspan1101" style="text-decoration:;">服务器B</tspan></tspan></text></g></g><g id="SvgjsG1102" transform="translate(232,598.6875)"><path id="SvgjsPath1103" d="M 0 0L 85 0L 85 28L 0 28Z" stroke="rgba(50,50,50,1)" stroke-width="2" fill-opacity="1" fill="#ffffff"></path><g id="SvgjsG1104"><text id="SvgjsText1105" font-family="微软雅黑" text-anchor="middle" font-size="13px" width="65px" fill="#323232" font-weight="400" align="middle" lineHeight="125%" anchor="middle" family="微软雅黑" size="13px" weight="400" font-style="" opacity="1" y="4.375" transform="rotate(0)"><tspan id="SvgjsTspan1106" dy="16" x="42.5"><tspan id="SvgjsTspan1107" style="text-decoration:;">B服务log</tspan></tspan></text></g></g><g id="SvgjsG1108" transform="translate(657.5,459.6875)"><path id="SvgjsPath1109" d="M 0 0L 121 0L 121 44L 0 44Z" stroke="none" fill="none"></path><g id="SvgjsG1110"><text id="SvgjsText1111" font-family="微软雅黑" text-anchor="middle" font-size="13px" width="121px" fill="#323232" font-weight="400" align="middle" lineHeight="125%" anchor="middle" family="微软雅黑" size="13px" weight="400" font-style="" opacity="1" y="12.375" transform="rotate(0)"><tspan id="SvgjsTspan1112" dy="16" x="60.5"><tspan id="SvgjsTspan1113" style="text-decoration:;">日志中枢系统</tspan></tspan></text></g></g><g id="SvgjsG1114" transform="translate(767,508.6875)"><path id="SvgjsPath1115" d="M 0 0L 134 0L 134 186L 0 186Z" stroke-dasharray="3,4" stroke="rgba(50,50,50,1)" stroke-width="2" fill-opacity="1" fill="#ffffff"></path><g id="SvgjsG1116"><text id="SvgjsText1117" font-family="微软雅黑" text-anchor="middle" font-size="13px" width="114px" fill="#0000ff" font-weight="400" align="middle" lineHeight="125%" anchor="middle" family="微软雅黑" size="13px" weight="400" font-style="" opacity="1" y="83.375" transform="rotate(0)"></text></g></g><g id="SvgjsG1118" transform="translate(587,636.6875)"><path id="SvgjsPath1119" d="M 0 0L 116 0L 116 44L 0 44Z" stroke-dasharray="3,4" stroke="rgba(50,50,50,1)" stroke-width="2" fill-opacity="1" fill="#ffffff"></path><g id="SvgjsG1120"><text id="SvgjsText1121" font-family="微软雅黑" text-anchor="middle" font-size="13px" width="96px" fill="#323232" font-weight="400" align="middle" lineHeight="125%" anchor="middle" family="微软雅黑" size="13px" weight="400" font-style="" opacity="1" y="12.375" transform="rotate(0)"><tspan id="SvgjsTspan1122" dy="16" x="58"><tspan id="SvgjsTspan1123" style="text-decoration:;">PLG</tspan></tspan></text></g></g><g id="SvgjsG1124" transform="translate(1160.406896551724,490.6372487437186)"><path id="SvgjsPath1125" d="M 0 0L 381 0L 381 219L 0 219Z" stroke="rgba(50,50,50,1)" stroke-width="2" fill-opacity="1" fill="#ffffff"></path><g id="SvgjsG1126"><text id="SvgjsText1127" font-family="微软雅黑" text-anchor="middle" font-size="13px" width="361px" fill="#323232" font-weight="400" align="middle" lineHeight="125%" anchor="middle" family="微软雅黑" size="13px" weight="400" font-style="" opacity="1" y="99.875" transform="rotate(0)"></text></g></g><g id="SvgjsG1128" transform="translate(1268.5310344827587,447.6875)"><path id="SvgjsPath1129" d="M 0 0L 167 0L 167 52L 0 52Z" stroke="none" fill="none"></path><g id="SvgjsG1130"><text id="SvgjsText1131" font-family="微软雅黑" text-anchor="middle" font-size="13px" width="167px" fill="#323232" font-weight="400" align="middle" lineHeight="125%" anchor="middle" family="微软雅黑" size="13px" weight="400" font-style="" opacity="1" y="16.375" transform="rotate(0)"><tspan id="SvgjsTspan1132" dy="16" x="83.5"><tspan id="SvgjsTspan1133" style="text-decoration:;">任务调度平台</tspan></tspan></text></g></g><g id="SvgjsG1134" transform="translate(1318.4344827586206,525.1271984924623)"><path id="SvgjsPath1135" d="M 0 0L 216.24827586206897 0L 216.24827586206897 168.54522613065328L 0 168.54522613065328Z" stroke-dasharray="3,4" stroke="rgba(50,50,50,1)" stroke-width="2" fill-opacity="1" fill="#ffffff"></path><g id="SvgjsG1136"><text id="SvgjsText1137" font-family="微软雅黑" text-anchor="middle" font-size="13px" width="197px" fill="#0000ff" font-weight="400" align="middle" lineHeight="125%" anchor="middle" family="微软雅黑" size="13px" weight="400" font-style="" opacity="1" y="74.64761306532664" transform="rotate(0)"><tspan id="SvgjsTspan1138" dy="16" x="108.5"><tspan id="SvgjsTspan1139" style="text-decoration:;">Airflow</tspan></tspan></text></g></g><g id="SvgjsG1140" transform="translate(1186.744827586207,628.6875)"><path id="SvgjsPath1141" d="M 0 0L 116 0L 116 60L 0 60Z" stroke-dasharray="3,4" stroke="rgba(50,50,50,1)" stroke-width="2" fill-opacity="1" fill="#ffffff"></path><g id="SvgjsG1142"><text id="SvgjsText1143" font-family="微软雅黑" text-anchor="middle" font-size="13px" width="96px" fill="#323232" font-weight="400" align="middle" lineHeight="125%" anchor="middle" family="微软雅黑" size="13px" weight="400" font-style="" opacity="1" y="20.375" transform="rotate(0)"><tspan id="SvgjsTspan1144" dy="16" x="58"><tspan id="SvgjsTspan1145" style="text-decoration:;">Azkaban</tspan></tspan></text></g></g><g id="SvgjsG1146" transform="translate(1121.593103448276,489.6875)"><path id="SvgjsPath1147" d="M 0 0L 167 0L 167 52L 0 52Z" stroke="none" fill="none"></path><g id="SvgjsG1148"><text id="SvgjsText1149" font-family="微软雅黑" text-anchor="middle" font-size="13px" width="167px" fill="#323232" font-weight="400" align="middle" lineHeight="125%" anchor="middle" family="微软雅黑" size="13px" weight="400" font-style="" opacity="1" y="16.375" transform="rotate(0)"><tspan id="SvgjsTspan1150" dy="16" x="83.5"><tspan id="SvgjsTspan1151" style="text-decoration:;">工作流引擎</tspan></tspan></text></g></g><g id="SvgjsG1152" transform="translate(489.02564102564105,294.1644859172103)"><path id="SvgjsPath1153" d="M 0 0L 61 0L 61 28L 0 28Z" stroke="rgba(50,50,50,1)" stroke-width="2" fill-opacity="1" fill="#ffffff"></path><g id="SvgjsG1154"><text id="SvgjsText1155" font-family="微软雅黑" text-anchor="middle" font-size="13px" width="41px" fill="#323232" font-weight="400" align="middle" lineHeight="125%" anchor="middle" family="微软雅黑" size="13px" weight="400" font-style="" opacity="1" y="4.375" transform="rotate(0)"><tspan id="SvgjsTspan1156" dy="16" x="30.5"><tspan id="SvgjsTspan1157" style="text-decoration:;">代码</tspan></tspan></text></g></g><g id="SvgjsG1158" transform="translate(432.0718372536554,355.51289779308667)"><path id="SvgjsPath1159" d="M 0 0L 61 0L 61 28L 0 28Z" stroke="rgba(50,50,50,1)" stroke-width="2" fill-opacity="1" fill="#ffffff"></path><g id="SvgjsG1160"><text id="SvgjsText1161" font-family="微软雅黑" text-anchor="middle" font-size="13px" width="41px" fill="#323232" font-weight="400" align="middle" lineHeight="125%" anchor="middle" family="微软雅黑" size="13px" weight="400" font-style="" opacity="1" y="4.375" transform="rotate(0)"><tspan id="SvgjsTspan1162" dy="16" x="30.5"><tspan id="SvgjsTspan1163" style="text-decoration:;">部署</tspan></tspan></text></g></g><g id="SvgjsG1164"><path id="SvgjsPath1165" d="M353.36607592484296 316.0344996345302L353.36607592484296 350.4546970574489L309.5 350.4546970574489" stroke="#323232" stroke-width="2" fill="none" marker-end="url(#SvgjsMarker1166)"></path></g><g id="SvgjsG1168"><path id="SvgjsPath1169" d="M432.0718372536554 369.5128977930866L381.79442252791387 369.5128977930866L381.79442252791387 318.25923646561375" stroke="#323232" stroke-width="2" fill="none" marker-end="url(#SvgjsMarker1170)"></path></g><g id="SvgjsG1172"><path id="SvgjsPath1173" d="M489.02564102564105 308.16448591721036L449.53288147710987 308.16448591721036L449.53288147710987 298.3746710459468L410.0401219285786 298.3746710459468" stroke="#323232" stroke-width="2" fill="none" marker-end="url(#SvgjsMarker1174)"></path></g><g id="SvgjsG1176" transform="translate(982.0940298507464,112.6875)"><path id="SvgjsPath1177" d="M 0 0L 134 0L 134 44L 0 44Z" stroke="none" fill="none"></path><g id="SvgjsG1178"><text id="SvgjsText1179" font-family="微软雅黑" text-anchor="middle" font-size="13px" width="134px" fill="#323232" font-weight="400" align="middle" lineHeight="125%" anchor="middle" family="微软雅黑" size="13px" weight="400" font-style="" opacity="1" y="12.375" transform="rotate(0)"><tspan id="SvgjsTspan1180" dy="16" x="67"><tspan id="SvgjsTspan1181" style="text-decoration:;">CICD</tspan></tspan></text></g></g><g id="SvgjsG1182" transform="translate(934.0119402985074,199.6875)"><path id="SvgjsPath1183" d="M 0 0L 99 0L 99 60L 0 60Z" stroke-dasharray="3,4" stroke="rgba(50,50,50,1)" stroke-width="2" fill-opacity="1" fill="#ffffff"></path><g id="SvgjsG1184"><text id="SvgjsText1185" font-family="微软雅黑" text-anchor="middle" font-size="13px" width="79px" fill="#0000ff" font-weight="400" align="middle" lineHeight="125%" anchor="middle" family="微软雅黑" size="13px" weight="400" font-style="" opacity="1" y="20.375" transform="rotate(0)"><tspan id="SvgjsTspan1186" dy="16" x="49.5"><tspan id="SvgjsTspan1187" style="text-decoration:;">gitlab</tspan></tspan></text></g></g><g id="SvgjsG1188" transform="translate(1056.1970149253732,199.6875)"><path id="SvgjsPath1189" d="M 0 0L 121 0L 121 60L 0 60Z" stroke-dasharray="3,4" stroke="rgba(50,50,50,1)" stroke-width="2" fill-opacity="1" fill="#ffffff"></path><g id="SvgjsG1190"><text id="SvgjsText1191" font-family="微软雅黑" text-anchor="middle" font-size="13px" width="101px" fill="#323232" font-weight="400" align="middle" lineHeight="125%" anchor="middle" family="微软雅黑" size="13px" weight="400" font-style="" opacity="1" y="20.375" transform="rotate(0)"><tspan id="SvgjsTspan1192" dy="16" x="60.5"><tspan id="SvgjsTspan1193" style="text-decoration:;">gogs+drone</tspan></tspan></text></g></g><g id="SvgjsG1194" transform="translate(922.6985074626866,295.1115914800537)"><path id="SvgjsPath1195" d="M 0 0L 263.6029850746269 0L 263.6029850746269 60L 0 60Z" stroke="rgba(50,50,50,1)" stroke-width="2" fill-opacity="1" fill="#ffffff"></path><g id="SvgjsG1196"><text id="SvgjsText1197" font-family="微软雅黑" text-anchor="middle" font-size="13px" width="244px" fill="#323232" font-weight="400" align="middle" lineHeight="125%" anchor="middle" family="微软雅黑" size="13px" weight="400" font-style="" opacity="1" y="12.375" transform="rotate(0)"><tspan id="SvgjsTspan1198" dy="16" x="132"><tspan id="SvgjsTspan1199" style="text-decoration:;">docker</tspan></tspan><tspan id="SvgjsTspan1200" dy="16" x="132"><tspan id="SvgjsTspan1201" style="text-decoration:;">docker-compose</tspan></tspan></text></g></g><g id="SvgjsG1202"><path id="SvgjsPath1203" d="M922.6985074626866 325.1115914800537L709.0030998851896 325.1115914800537L709.0030998851896 369.5128977930866L493.0718372536554 369.5128977930866" stroke="#323232" stroke-width="2" fill="none" marker-end="url(#SvgjsMarker1204)"></path></g><g id="SvgjsG1206"><path id="SvgjsPath1207" d="M919.3044776119405 229.6875L734.318905472637 229.6875L734.318905472637 308.16448591721036L550.0256410256411 308.16448591721036" stroke="#323232" stroke-width="2" fill="none" marker-end="url(#SvgjsMarker1208)"></path></g><g id="SvgjsG1210" transform="translate(1186.744827586207,549.2050879396985)"><path id="SvgjsPath1211" d="M 0 0L 99 0L 99 52L 0 52Z" stroke-dasharray="3,4" stroke="rgba(50,50,50,1)" stroke-width="2" fill-opacity="1" fill="#ffffff"></path><g id="SvgjsG1212"><text id="SvgjsText1213" font-family="微软雅黑" text-anchor="middle" font-size="13px" width="79px" fill="#323232" font-weight="400" align="middle" lineHeight="125%" anchor="middle" family="微软雅黑" size="13px" weight="400" font-style="" opacity="1" y="16.375" transform="rotate(0)"><tspan id="SvgjsTspan1214" dy="16" x="49.5"><tspan id="SvgjsTspan1215" style="text-decoration:;">crontab</tspan></tspan></text></g></g><g id="SvgjsG1216" transform="translate(1434.8758620689657,538.6422738693467)"><path id="SvgjsPath1217" d="M 0 0L 85 0L 85 38L 0 38Z" stroke="rgba(50,50,50,1)" stroke-width="2" fill-opacity="1" fill="#ffffff"></path><g id="SvgjsG1218"><text id="SvgjsText1219" font-family="微软雅黑" text-anchor="middle" font-size="13px" width="65px" fill="#323232" font-weight="400" align="middle" lineHeight="125%" anchor="middle" family="微软雅黑" size="13px" weight="400" font-style="" opacity="1" y="9.375" transform="rotate(0)"><tspan id="SvgjsTspan1220" dy="16" x="42.5"><tspan id="SvgjsTspan1221" style="text-decoration:;">tasks</tspan></tspan></text></g></g><g id="SvgjsG1222" transform="translate(773.5,507.6875)"><path id="SvgjsPath1223" d="M 0 0L 121 0L 121 44L 0 44Z" stroke="none" fill="none"></path><g id="SvgjsG1224"><text id="SvgjsText1225" font-family="微软雅黑" text-anchor="middle" font-size="13px" width="121px" fill="#0000ff" font-weight="400" align="middle" lineHeight="125%" anchor="middle" family="微软雅黑" size="13px" weight="400" font-style="" opacity="1" y="12.375" transform="rotate(0)"><tspan id="SvgjsTspan1226" dy="16" x="60.5"><tspan id="SvgjsTspan1227" style="text-decoration:;">ELK</tspan></tspan></text></g></g><g id="SvgjsG1228" transform="translate(587,557.6875)"><path id="SvgjsPath1229" d="M 0 0L 116 0L 116 52L 0 52Z" stroke-dasharray="3,4" stroke="rgba(50,50,50,1)" stroke-width="2" fill-opacity="1" fill="#ffffff"></path><g id="SvgjsG1230"><text id="SvgjsText1231" font-family="微软雅黑" text-anchor="middle" font-size="13px" width="96px" fill="#323232" font-weight="400" align="middle" lineHeight="125%" anchor="middle" family="微软雅黑" size="13px" weight="400" font-style="" opacity="1" y="16.375" transform="rotate(0)"><tspan id="SvgjsTspan1232" dy="16" x="58"><tspan id="SvgjsTspan1233" style="text-decoration:;">登录服务器查看</tspan></tspan></text></g></g><g id="SvgjsG1234" transform="translate(784.5,551.6875)"><path id="SvgjsPath1235" d="M 0 0L 99 0L 99 28L 0 28Z" stroke="rgba(50,50,50,1)" stroke-width="2" fill-opacity="1" fill="#ffffff"></path><g id="SvgjsG1236"><text id="SvgjsText1237" font-family="微软雅黑" text-anchor="middle" font-size="13px" width="79px" fill="#323232" font-weight="400" align="middle" lineHeight="125%" anchor="middle" family="微软雅黑" size="13px" weight="400" font-style="" opacity="1" y="4.375" transform="rotate(0)"><tspan id="SvgjsTspan1238" dy="16" x="49.5"><tspan id="SvgjsTspan1239" style="text-decoration:;">Kibana</tspan></tspan></text></g></g><g id="SvgjsG1240" transform="translate(784.5,585.6875)"><path id="SvgjsPath1241" d="M 0 0L 99 0L 99 28L 0 28Z" stroke="rgba(50,50,50,1)" stroke-width="2" fill-opacity="1" fill="#ffffff"></path><g id="SvgjsG1242"><text id="SvgjsText1243" font-family="微软雅黑" text-anchor="middle" font-size="13px" width="79px" fill="#323232" font-weight="400" align="middle" lineHeight="125%" anchor="middle" family="微软雅黑" size="13px" weight="400" font-style="" opacity="1" y="4.375" transform="rotate(0)"><tspan id="SvgjsTspan1244" dy="16" x="49.5"><tspan id="SvgjsTspan1245" style="text-decoration:;">ES</tspan></tspan></text></g></g><g id="SvgjsG1246" transform="translate(784.5,619.6875)"><path id="SvgjsPath1247" d="M 0 0L 99 0L 99 28L 0 28Z" stroke="rgba(50,50,50,1)" stroke-width="2" fill-opacity="1" fill="#ffffff"></path><g id="SvgjsG1248"><text id="SvgjsText1249" font-family="微软雅黑" text-anchor="middle" font-size="13px" width="79px" fill="#323232" font-weight="400" align="middle" lineHeight="125%" anchor="middle" family="微软雅黑" size="13px" weight="400" font-style="" opacity="1" y="4.375" transform="rotate(0)"><tspan id="SvgjsTspan1250" dy="16" x="49.5"><tspan id="SvgjsTspan1251" style="text-decoration:;">Logstash</tspan></tspan></text></g></g><g id="SvgjsG1252" transform="translate(784.5,655.6875)"><path id="SvgjsPath1253" d="M 0 0L 99 0L 99 28L 0 28Z" stroke="rgba(50,50,50,1)" stroke-width="2" fill-opacity="1" fill="#ffffff"></path><g id="SvgjsG1254"><text id="SvgjsText1255" font-family="微软雅黑" text-anchor="middle" font-size="13px" width="79px" fill="#323232" font-weight="400" align="middle" lineHeight="125%" anchor="middle" family="微软雅黑" size="13px" weight="400" font-style="" opacity="1" y="4.375" transform="rotate(0)"><tspan id="SvgjsTspan1256" dy="16" x="49.5"><tspan id="SvgjsTspan1257" style="text-decoration:;">Filebeat</tspan></tspan></text></g></g><g id="SvgjsG1258"><path id="SvgjsPath1259" d="M267 369.4546970574489L267 528.6875L568 528.6875" stroke="#323232" stroke-width="2" fill="none" marker-end="url(#SvgjsMarker1260)"></path></g><g id="SvgjsG1262"><path id="SvgjsPath1263" d="M274.5 598.6875L274.5 549.6875L568 549.6875" stroke="#323232" stroke-width="2" fill="none" marker-end="url(#SvgjsMarker1264)"></path></g><g id="SvgjsG1266"><path id="SvgjsPath1267" d="M883.5 598.6875L1019 598.6875L1019 598.6875L1157 598.6875" stroke="#323232" stroke-width="2" fill="none" marker-end="url(#SvgjsMarker1268)"></path></g><g id="SvgjsG1270" transform="translate(1617,231.6875)"><path id="SvgjsPath1271" d="M 0 5.5C 0 -1.8333333333333333 20 -1.8333333333333333 20 5.5C 20 12.833333333333334 0 12.833333333333334 0 5.5Z" stroke="rgba(50,50,50,1)" stroke-width="2" fill-opacity="1" fill="#ffffff"></path><g id="SvgjsG1272"><text id="SvgjsText1273" font-family="微软雅黑" text-anchor="middle" font-size="13px" width="0px" fill="#323232" font-weight="400" align="middle" lineHeight="125%" anchor="middle" family="微软雅黑" size="13px" weight="400" font-style="" opacity="1" y="-4.125" transform="rotate(0)"></text></g></g><g id="SvgjsG1274" transform="translate(1612,242.44986506541164)"><path id="SvgjsPath1275" d="M 12.25 0L 17.75 0L 17.75 8.25L 30 8.25L 30 13.75L 17.75 13.75L 17.75 22L 12.25 22L 12.25 13.75L 0 13.75L 0 8.25L 12.25 8.25Z" stroke="rgba(50,50,50,1)" stroke-width="2" fill-opacity="1" fill="#ffffff"></path><g id="SvgjsG1276"><text id="SvgjsText1277" font-family="微软雅黑" text-anchor="middle" font-size="13px" width="30px" fill="#323232" font-weight="400" align="middle" lineHeight="125%" anchor="middle" family="微软雅黑" size="13px" weight="400" font-style="" opacity="1" y="1.375" transform="rotate(0)"></text></g></g><g id="SvgjsG1278" transform="translate(1349.8758620689657,108.6875)"><path id="SvgjsPath1279" d="M 0 0L 99 0L 99 70L 0 70Z" stroke="rgba(50,50,50,1)" stroke-width="2" fill-opacity="1" fill="#ffffff"></path><g id="SvgjsG1280"><text id="SvgjsText1281" font-family="微软雅黑" text-anchor="middle" font-size="13px" width="79px" fill="#323232" font-weight="400" align="middle" lineHeight="125%" anchor="middle" family="微软雅黑" size="13px" weight="400" font-style="" opacity="1" y="25.375" transform="rotate(0)"><tspan id="SvgjsTspan1282" dy="16" x="49.5"><tspan id="SvgjsTspan1283" style="text-decoration:;">GIT</tspan></tspan></text></g></g><g id="SvgjsG1284"><path id="SvgjsPath1285" d="M1189.69552238806 229.6875L1477.3758620689657 229.6875L1477.3758620689657 538.6422738693467" stroke="#323232" stroke-width="2" fill="none" marker-end="url(#SvgjsMarker1286)"></path></g><g id="SvgjsG1288" transform="translate(1617,37.6875)"><path id="SvgjsPath1289" d="M 0 5.5C 0 -1.8333333333333333 20 -1.8333333333333333 20 5.5C 20 12.833333333333334 0 12.833333333333334 0 5.5Z" stroke="rgba(50,50,50,1)" stroke-width="2" fill-opacity="1" fill="#ffffff"></path><g id="SvgjsG1290"><text id="SvgjsText1291" font-family="微软雅黑" text-anchor="middle" font-size="13px" width="0px" fill="#323232" font-weight="400" align="middle" lineHeight="125%" anchor="middle" family="微软雅黑" size="13px" weight="400" font-style="" opacity="1" y="-4.125" transform="rotate(0)"></text></g></g><g id="SvgjsG1292" transform="translate(1612,48.44986506541163)"><path id="SvgjsPath1293" d="M 12.25 0L 17.75 0L 17.75 8.25L 30 8.25L 30 13.75L 17.75 13.75L 17.75 22L 12.25 22L 12.25 13.75L 0 13.75L 0 8.25L 12.25 8.25Z" stroke="rgba(50,50,50,1)" stroke-width="2" fill-opacity="1" fill="#ffffff"></path><g id="SvgjsG1294"><text id="SvgjsText1295" font-family="微软雅黑" text-anchor="middle" font-size="13px" width="30px" fill="#323232" font-weight="400" align="middle" lineHeight="125%" anchor="middle" family="微软雅黑" size="13px" weight="400" font-style="" opacity="1" y="1.375" transform="rotate(0)"></text></g></g><g id="SvgjsG1296" transform="translate(1587.5,113.6875)"><path id="SvgjsPath1297" d="M 0 0L 79 0L 79 60L 0 60Z" stroke="rgba(50,50,50,1)" stroke-width="2" fill-opacity="1" fill="#ffffff"></path><g id="SvgjsG1298"><text id="SvgjsText1299" font-family="微软雅黑" text-anchor="middle" font-size="13px" width="59px" fill="#323232" font-weight="400" align="middle" lineHeight="125%" anchor="middle" family="微软雅黑" size="13px" weight="400" font-style="" opacity="1" y="20.375" transform="rotate(0)"><tspan id="SvgjsTspan1300" dy="16" x="39.5"><tspan id="SvgjsTspan1301" style="text-decoration:;">Yapi</tspan></tspan></text></g></g><g id="SvgjsG1302"><path id="SvgjsPath1303" d="M1627 70.44986506541163L1627 92.04785418560432L1627 92.04785418560432L1627 113.6875" stroke="#323232" stroke-width="2" fill="none" marker-end="url(#SvgjsMarker1304)"></path></g><g id="SvgjsG1306"><path id="SvgjsPath1307" d="M1627 231.6875L1627 201.6875L1627 201.6875L1627 173.6875" stroke="#323232" stroke-width="2" fill="none" marker-end="url(#SvgjsMarker1308)"></path></g><g id="SvgjsG1310"><path id="SvgjsPath1311" d="M1612 59.44986506541163L1530.5 59.44986506541163L1530.5 130.6875L1448.8758620689657 130.6875" stroke="#323232" stroke-width="2" fill="none" marker-end="url(#SvgjsMarker1312)"></path></g><g id="SvgjsG1314"><path id="SvgjsPath1315" d="M1612 253.44986506541164L1530.5 253.44986506541164L1530.5 161.6875L1448.8758620689657 161.6875" stroke="#323232" stroke-width="2" fill="none" marker-end="url(#SvgjsMarker1316)"></path></g><g id="SvgjsG1318"><path id="SvgjsPath1319" d="M1349.8758620689657 143.6875L1319.8758620689657 143.6875L1319.8758620689657 83.6875L1049.0940298507464 83.6875L1049.0940298507464 112.6875" stroke="#323232" stroke-width="2" fill="none" marker-end="url(#SvgjsMarker1320)"></path></g><g id="SvgjsG1322"><path id="SvgjsPath1323" d="M325.6092392456029 278.5594040598613L229.30461962280145 278.5594040598613L229.30461962280145 278.5594040598613L133 278.5594040598613" stroke-dasharray="3,3" stroke="#323232" stroke-width="2" fill="none" marker-end="url(#SvgjsMarker1324)"></path></g><g id="SvgjsG1326" transform="translate(703,48.44986506541163)"><path id="SvgjsPath1327" d="M 0 0L 109 0L 109 69.71599827551455L 0 69.71599827551455Z" stroke-dasharray="3,4" stroke="rgba(50,50,50,1)" stroke-width="2" fill-opacity="1" fill="#ffffff"></path><g id="SvgjsG1328"><text id="SvgjsText1329" font-family="微软雅黑" text-anchor="middle" font-size="13px" width="89px" fill="#323232" font-weight="400" align="middle" lineHeight="125%" anchor="middle" family="微软雅黑" size="13px" weight="400" font-style="" opacity="1" y="17.232999137757275" transform="rotate(0)"><tspan id="SvgjsTspan1330" dy="16" x="54.5"><tspan id="SvgjsTspan1331" style="text-decoration:;">harbor</tspan></tspan><tspan id="SvgjsTspan1332" dy="16" x="54.5"><tspan id="SvgjsTspan1333" style="text-decoration:;">私有镜像仓库</tspan></tspan></text></g></g><g id="SvgjsG1334"><path id="SvgjsPath1335" d="M971 182.6875L971 83.3078642031689L812 83.3078642031689" stroke-dasharray="3,3" stroke="#323232" stroke-width="2" fill="none" marker-end="url(#SvgjsMarker1336)"></path></g><g id="SvgjsG1338" transform="translate(1158,156.6875)"><path id="SvgjsPath1339" d="M 0 0L 120 0L 120 40L 0 40Z" stroke="none" fill="none"></path><g id="SvgjsG1340"><text id="SvgjsText1341" font-family="微软雅黑" text-anchor="middle" font-size="13px" width="120px" fill="#323232" font-weight="400" align="middle" lineHeight="125%" anchor="middle" family="微软雅黑" size="13px" weight="400" font-style="" opacity="1" y="10.375" transform="rotate(0)"><tspan id="SvgjsTspan1342" dy="16" x="60"><tspan id="SvgjsTspan1343" style="text-decoration:;">CI 工具</tspan></tspan></text></g></g><g id="SvgjsG1344" transform="translate(25,242.44986506541164)"><path id="SvgjsPath1345" d="M 0 0L 100 0L 100 70L 0 70Z" stroke-dasharray="3,4" stroke="rgba(50,50,50,1)" stroke-width="2" fill-opacity="1" fill="#ffffff"></path><g id="SvgjsG1346"><text id="SvgjsText1347" font-family="微软雅黑" text-anchor="middle" font-size="13px" width="80px" fill="#323232" font-weight="400" align="middle" lineHeight="125%" anchor="middle" family="微软雅黑" size="13px" weight="400" font-style="" opacity="1" y="25.375" transform="rotate(0)"><tspan id="SvgjsTspan1348" dy="16" x="50"><tspan id="SvgjsTspan1349" style="text-decoration:;">服务拆分</tspan></tspan></text></g></g><g id="SvgjsG1350" transform="translate(1176.244827586207,48.44986506541163)"><path id="SvgjsPath1351" d="M 0 0L 120 0L 120 40L 0 40Z" stroke="none" fill="none"></path><g id="SvgjsG1352"><text id="SvgjsText1353" font-family="微软雅黑" text-anchor="middle" font-size="13px" width="120px" fill="#323232" font-weight="400" align="middle" lineHeight="125%" anchor="middle" family="微软雅黑" size="13px" weight="400" font-style="" opacity="1" y="10.375" transform="rotate(0)"><tspan id="SvgjsTspan1354" dy="16" x="60"><tspan id="SvgjsTspan1355" style="text-decoration:;">文本</tspan></tspan></text></g></g><g id="SvgjsG1356" transform="translate(498.21487603305786,196.6875)"><path id="SvgjsPath1357" d="M 0 0L 120 0L 120 40L 0 40Z" stroke="none" fill="none"></path><g id="SvgjsG1358"><text id="SvgjsText1359" font-family="微软雅黑" text-anchor="middle" font-size="13px" width="120px" fill="#323232" font-weight="400" align="middle" lineHeight="125%" anchor="middle" family="微软雅黑" size="13px" weight="400" font-style="" opacity="1" y="10.375" transform="rotate(0)"><tspan id="SvgjsTspan1360" dy="16" x="60"><tspan id="SvgjsTspan1361" style="text-decoration:;">反代</tspan></tspan></text></g></g><g id="SvgjsG1362" transform="translate(974,563.6875)"><path id="SvgjsPath1363" d="M 0 0L 120 0L 120 40L 0 40Z" stroke="none" fill="none"></path><g id="SvgjsG1364"><text id="SvgjsText1365" font-family="微软雅黑" text-anchor="middle" font-size="13px" width="120px" fill="#323232" font-weight="400" align="middle" lineHeight="125%" anchor="middle" family="微软雅黑" size="13px" weight="400" font-style="" opacity="1" y="10.375" transform="rotate(0)"><tspan id="SvgjsTspan1366" dy="16" x="60"><tspan id="SvgjsTspan1367" style="text-decoration:;">定时清理es索引</tspan></tspan></text></g></g><g id="SvgjsG1368"><path id="SvgjsPath1369" d="M940 182.6875L940 142.6875L812 142.6875" stroke-dasharray="3,3" stroke="#323232" stroke-width="2" fill="none" marker-end="url(#SvgjsMarker1370)"></path></g><g id="SvgjsG1372" transform="translate(696,129.97150172448545)"><path id="SvgjsPath1373" d="M 0 0L 116 0L 116 66.71599827551456L 0 66.71599827551456Z" stroke-dasharray="3,4" stroke="rgba(50,50,50,1)" stroke-width="2" fill-opacity="1" fill="#ffffff"></path><g id="SvgjsG1374"><text id="SvgjsText1375" font-family="微软雅黑" text-anchor="middle" font-size="13px" width="96px" fill="#323232" font-weight="400" align="middle" lineHeight="125%" anchor="middle" family="微软雅黑" size="13px" weight="400" font-style="" opacity="1" y="7.732999137757282" transform="rotate(0)"><tspan id="SvgjsTspan1376" dy="16" x="58"><tspan id="SvgjsTspan1377" style="text-decoration:;">阿里云</tspan></tspan><tspan id="SvgjsTspan1378" dy="16" x="58"><tspan id="SvgjsTspan1379" style="text-decoration:;">镜像仓库</tspan></tspan><tspan id="SvgjsTspan1380" dy="16" x="58"><tspan id="SvgjsTspan1381" style="text-decoration:;">自动构建</tspan></tspan></text></g></g></svg>